<?xml version="1.0" encoding="UTF-8" standalone="no"?>
<svg width="282px" height="41px" viewBox="0 0 282 41" version="1.1" xmlns="http://www.w3.org/2000/svg" xmlns:xlink="http://www.w3.org/1999/xlink">
    <!-- Generator: Sketch 47.1 (45422) - http://www.bohemiancoding.com/sketch -->
    <title>Ohio State ASC Logo</title>
    <desc>Created with Sketch.</desc>
    <defs></defs>
    <g id="Landing-Page" stroke="none" stroke-width="1" fill="none" fill-rule="evenodd">
        <g id="Desktop-HD---Landing-Page" transform="translate(-872.000000, -62.000000)">
            <g id="Header">
                <g id="osu-asc-logo" transform="translate(872.000000, 62.000000)">
                    <g id="Ohio-State-ASC-Logo">
                        <g id="XMLID_171_" fill-rule="nonzero">
                            <path d="M8.62048796,11.8684211 L11.2784718,9.20701754 L19.9707971,9.20701754 L22.6287809,11.8684211 L22.6287809,29.7789474 L19.9707971,32.4403509 L11.3503092,32.4403509 L8.62048796,29.7789474 L8.62048796,11.8684211 L8.62048796,11.8684211 Z M29.5251713,8.91929825 L22.9161305,2.30175439 L8.54865056,2.30175439 L1.86777239,8.99122807 L1.86777239,32.6561404 L8.54865056,39.345614 L22.9161305,39.345614 L29.5251713,32.7280702 L29.5251713,8.91929825 L29.5251713,8.91929825 Z" id="XMLID_178_" fill="#C3002F"></path>
                            <path d="M0.933886196,33.0157895 L0.933886196,8.4877193 L8.18946357,1.29473684 L23.2753175,1.29473684 L30.3872201,8.41578947 L30.3872201,33.0877193 L23.2034801,40.2807018 L8.18946357,40.2807018 L0.933886196,33.0157895 L0.933886196,33.0157895 Z M7.90211397,0.575438596 L0.287349599,8.2 L0.287349599,33.3754386 L7.83027657,41 L23.5626671,41 L31.1774315,33.3754386 L31.1774315,8.2 L23.5626671,0.575438596 L7.90211397,0.575438596 L7.90211397,0.575438596 Z" id="XMLID_175_" fill="#000000"></path>
                            <path d="M12.1405205,10.9333333 L19.2524231,10.9333333 L20.9765207,12.6596491 L20.9765207,29.1315789 L19.3242605,30.7859649 L12.0686831,30.7859649 L10.4882604,29.2035088 L10.4882604,12.6596491 L12.1405205,10.9333333 L12.1405205,10.9333333 Z M21.6230573,12.3719298 L19.4679353,10.2140351 L11.853171,10.2140351 L9.76988636,12.3 L9.76988636,29.3473684 L11.853171,31.4333333 L19.6834475,31.4333333 L21.6948947,29.4192982 L21.6948947,12.3719298 L21.6230573,12.3719298 Z" id="XMLID_172_" fill="#000000"></path>
                        </g>
                        <g id="XMLID_120_" transform="translate(40.947318, 2.157895)" fill-rule="nonzero" fill="#000000">
                            <polygon id="XMLID_57_" points="0.359186999 20.2122807 0.359186999 20.9315789 240.942639 20.9315789 240.942639 20.2122807"></polygon>
                            <g id="XMLID_121_">
                                <polygon id="XMLID_168_" points="9.91356116 3.66842105 9.69804896 2.08596491 6.82455297 2.08596491 6.82455297 12.2280702 8.33313837 12.4438596 8.33313837 13.3789474 2.94533339 13.3789474 2.94533339 12.4438596 4.45391878 12.2280702 4.45391878 2.08596491 1.58042279 2.08596491 1.36491059 3.66842105 0.359186999 3.66842105 0.359186999 0.79122807 10.9192848 0.79122807 10.9192848 3.66842105 9.91356116 3.66842105"></polygon>
                                <polygon id="XMLID_166_" points="17.7438377 13.3789474 17.7438377 12.4438596 19.1805857 12.2280702 19.1805857 8.7754386 15.4450409 8.7754386 15.4450409 12.2280702 16.8817889 12.4438596 16.8817889 13.3789474 11.7813336 13.3789474 11.7813336 12.4438596 13.2180815 12.2280702 13.2180815 4.60350877 11.7813336 4.3877193 11.7813336 3.45263158 16.8817889 3.45263158 16.8817889 4.3877193 15.4450409 4.60350877 15.4450409 7.55263158 19.1805857 7.55263158 19.1805857 4.60350877 17.7438377 4.3877193 17.7438377 3.45263158 22.8442931 3.45263158 22.8442931 4.3877193 21.4075451 4.60350877 21.4075451 12.2280702 22.8442931 12.4438596 22.8442931 13.3789474"></polygon>
                                <polygon id="XMLID_164_" points="32.4705047 13.3789474 23.9936915 13.3789474 23.9936915 12.4438596 25.4304395 12.2280702 25.4304395 4.60350877 23.9936915 4.3877193 23.9936915 3.45263158 32.5423421 3.45263158 32.5423421 6.04210526 31.6084559 6.04210526 31.3929437 4.60350877 27.8010737 4.60350877 27.8010737 7.55263158 30.0280331 7.55263158 30.2435453 6.25789474 31.1055941 6.25789474 31.1055941 9.92631579 30.1717079 9.92631579 29.9561957 8.63157895 27.7292363 8.63157895 27.7292363 12.0122807 31.3211063 12.0122807 31.5366185 10.5736842 32.4705047 10.5736842"></polygon>
                                <path d="M44.4673504,13.5947368 C40.5881308,13.5947368 38.8640332,11.2929825 38.8640332,7.04912281 C38.8640332,2.80526316 40.5881308,0.575438596 44.5391878,0.575438596 C48.4184074,0.575438596 50.142505,2.87719298 50.142505,7.12105263 C50.142505,11.2929825 48.4184074,13.5947368 44.4673504,13.5947368 Z M44.4673504,1.87017544 C42.3840658,1.87017544 41.3065048,3.5245614 41.3065048,6.97719298 C41.3065048,10.4298246 42.3122284,12.1561404 44.395513,12.1561404 C46.4787976,12.1561404 47.5563586,10.5017544 47.5563586,7.04912281 C47.628196,3.59649123 46.6224724,1.87017544 44.4673504,1.87017544 Z" id="XMLID_161_"></path>
                                <polygon id="XMLID_159_" points="57.2544076 13.3789474 57.2544076 12.4438596 58.6911556 12.2280702 58.6911556 8.7754386 54.9556108 8.7754386 54.9556108 12.2280702 56.3923588 12.4438596 56.3923588 13.3789474 51.2919034 13.3789474 51.2919034 12.4438596 52.7286514 12.2280702 52.7286514 4.60350877 51.2919034 4.3877193 51.2919034 3.45263158 56.3923588 3.45263158 56.3923588 4.3877193 54.9556108 4.60350877 54.9556108 7.55263158 58.6911556 7.55263158 58.6911556 4.60350877 57.2544076 4.3877193 57.2544076 3.45263158 62.3548629 3.45263158 62.3548629 4.3877193 60.9181149 4.60350877 60.9181149 12.2280702 62.3548629 12.4438596 62.3548629 13.3789474"></polygon>
                                <polygon id="XMLID_157_" points="63.5760987 13.3789474 63.5760987 12.4438596 65.0128467 12.2280702 65.0128467 4.60350877 63.5760987 4.3877193 63.5760987 3.45263158 68.7483915 3.45263158 68.7483915 4.3877193 67.3116435 4.60350877 67.3116435 12.2280702 68.7483915 12.4438596 68.7483915 13.3789474"></polygon>
                                <path d="M74.3517087,13.5947368 C71.0471883,13.5947368 69.5386029,11.7245614 69.5386029,8.4877193 C69.5386029,5.25087719 70.9753509,3.38070175 74.3517087,3.38070175 C77.6562291,3.38070175 79.1648145,5.25087719 79.1648145,8.4877193 C79.1648145,11.7245614 77.6562291,13.5947368 74.3517087,13.5947368 Z M74.3517087,4.60350877 C72.7712859,4.60350877 71.9092371,5.75438596 71.9092371,8.41578947 C71.9092371,11.077193 72.6994485,12.2280702 74.2798713,12.2280702 C75.8602941,12.2280702 76.7223429,11.077193 76.7223429,8.41578947 C76.7941803,5.75438596 75.9321315,4.60350877 74.3517087,4.60350877 Z" id="XMLID_154_"></path>
                                <path d="M89.4375626,13.5947368 C87.2824406,13.5947368 85.4865056,12.8754386 85.4865056,12.8754386 L85.4865056,10.2140351 L86.5640666,10.2140351 L86.7795788,11.9403509 C86.7795788,11.9403509 87.5697902,12.2280702 89.0065382,12.2280702 C90.4432862,12.2280702 91.8081968,11.7245614 91.8081968,10.1421053 C91.8081968,8.70350877 90.8024732,8.4877193 89.5812374,8.05614035 C87.5697902,7.40877193 85.4865056,6.83333333 85.4865056,4.1 C85.4865056,1.87017544 86.8514162,0.575438596 89.7249122,0.575438596 C91.0179854,0.575438596 92.382896,0.863157895 93.460457,1.29473684 L93.460457,3.8122807 L92.382896,3.8122807 L92.1673838,2.15789474 C92.1673838,2.15789474 91.0179854,1.94210526 89.9404244,1.94210526 C88.8628634,1.94210526 87.713465,2.30175439 87.713465,3.74035088 C87.713465,6.90526316 94.0351562,4.81929825 94.0351562,9.85438596 C94.1069936,12.2280702 92.5265708,13.5947368 89.4375626,13.5947368 Z" id="XMLID_152_"></path>
                                <polygon id="XMLID_150_" points="103.014831 6.18596491 102.799319 4.6754386 100.644197 4.6754386 100.644197 12.2280702 102.080945 12.4438596 102.080945 13.3789474 96.9086522 13.3789474 96.9086522 12.4438596 98.3454002 12.2280702 98.3454002 4.6754386 96.1902782 4.6754386 95.974766 6.18596491 95.0408798 6.18596491 95.0408798 3.45263158 104.020555 3.45263158 104.020555 6.18596491"></polygon>
                                <path d="M109.983059,13.3789474 L109.983059,12.4438596 L111.419807,12.2280702 L110.701433,10.4298246 L106.965888,10.4298246 L106.247514,12.2280702 L107.684262,12.4438596 L107.684262,13.3789474 L103.374018,13.3789474 L103.374018,12.4438596 L104.810766,12.2280702 L108.187124,3.45263158 L110.342246,3.45263158 L113.718604,12.2280702 L115.155352,12.4438596 L115.155352,13.3789474 L109.983059,13.3789474 Z M108.833661,5.39473684 L107.396913,9.27894737 L110.270409,9.27894737 L108.833661,5.39473684 Z" id="XMLID_147_"></path>
                                <polygon id="XMLID_145_" points="122.554604 6.18596491 122.339092 4.6754386 120.18397 4.6754386 120.18397 12.2280702 121.620718 12.4438596 121.620718 13.3789474 116.448425 13.3789474 116.448425 12.4438596 117.885173 12.2280702 117.885173 4.6754386 115.730051 4.6754386 115.514539 6.18596491 114.580653 6.18596491 114.580653 3.45263158 123.560327 3.45263158 123.560327 6.18596491"></polygon>
                                <polygon id="XMLID_143_" points="132.899189 13.3789474 124.350539 13.3789474 124.350539 12.4438596 125.787287 12.2280702 125.787287 4.60350877 124.350539 4.3877193 124.350539 3.45263158 132.899189 3.45263158 132.899189 6.04210526 131.965303 6.04210526 131.749791 4.60350877 128.157921 4.60350877 128.157921 7.55263158 130.38488 7.55263158 130.600393 6.25789474 131.462441 6.25789474 131.462441 9.92631579 130.600393 9.92631579 130.38488 8.63157895 128.157921 8.63157895 128.157921 12.0122807 131.749791 12.0122807 131.965303 10.5736842 132.899189 10.5736842"></polygon>
                                <path d="M150.068328,1.94210526 L150.068328,8.41578947 C150.068328,10.5736842 149.924653,11.5087719 148.91893,12.5157895 C148.200556,13.2350877 146.97932,13.5947368 145.183385,13.5947368 C143.38745,13.5947368 142.094377,13.0912281 141.304165,12.3 C140.226604,11.2210526 140.370279,9.63859649 140.370279,8.2 L140.370279,1.94210526 L138.861694,1.72631579 L138.861694,0.719298246 L144.249499,0.719298246 L144.249499,1.65438596 L142.740913,1.87017544 L142.740913,9.35087719 C142.740913,11.4368421 143.890312,12.2280702 145.686247,12.2280702 C146.620133,12.2280702 147.410344,12.0122807 147.913206,11.5087719 C148.34423,11.0052632 148.63158,10.2859649 148.63158,9.35087719 L148.63158,1.94210526 L147.122995,1.72631579 L147.122995,0.719298246 L151.720588,0.719298246 L151.720588,1.65438596 L150.068328,1.94210526 Z" id="XMLID_141_"></path>
                                <polygon id="XMLID_139_" points="161.921499 4.60350877 161.921499 13.3789474 160.197401 13.3789474 155.168783 6.32982456 155.168783 12.2280702 156.605531 12.4438596 156.605531 13.3789474 152.151613 13.3789474 152.151613 12.4438596 153.588361 12.2280702 153.588361 4.60350877 152.151613 4.3877193 152.151613 3.45263158 155.599808 3.45263158 160.412914 10.2140351 160.412914 4.60350877 158.976166 4.3877193 158.976166 3.45263158 163.430084 3.45263158 163.430084 4.3877193"></polygon>
                                <polygon id="XMLID_137_" points="164.579483 13.3789474 164.579483 12.4438596 166.016231 12.2280702 166.016231 4.60350877 164.579483 4.3877193 164.579483 3.45263158 169.751775 3.45263158 169.751775 4.3877193 168.315028 4.60350877 168.315028 12.2280702 169.751775 12.4438596 169.751775 13.3789474"></polygon>
                                <polygon id="XMLID_135_" points="180.814735 4.60350877 177.510215 13.3789474 175.355093 13.3789474 172.050572 4.60350877 170.613824 4.3877193 170.613824 3.45263158 175.71428 3.45263158 175.71428 4.3877193 174.277532 4.60350877 176.791841 11.3649123 179.30615 4.60350877 177.869402 4.3877193 177.869402 3.45263158 182.179646 3.45263158 182.179646 4.3877193"></polygon>
                                <polygon id="XMLID_133_" points="191.518508 13.3789474 182.969857 13.3789474 182.969857 12.4438596 184.406605 12.2280702 184.406605 4.60350877 182.969857 4.3877193 182.969857 3.45263158 191.518508 3.45263158 191.518508 6.04210526 190.584621 6.04210526 190.369109 4.60350877 186.777239 4.60350877 186.777239 7.55263158 189.004199 7.55263158 189.219711 6.25789474 190.08176 6.25789474 190.08176 9.92631579 189.219711 9.92631579 189.004199 8.63157895 186.777239 8.63157895 186.777239 12.0122807 190.369109 12.0122807 190.584621 10.5736842 191.518508 10.5736842"></polygon>
                                <path d="M200.138996,13.3789474 L199.205109,11.1491228 C198.558573,9.63859649 198.199386,8.91929825 196.906313,8.91929825 L196.762638,8.91929825 L196.762638,12.2280702 L198.199386,12.4438596 L198.199386,13.3789474 L193.09893,13.3789474 L193.09893,12.4438596 L194.535678,12.2280702 L194.535678,4.60350877 L193.09893,4.3877193 L193.09893,3.45263158 L198.055711,3.45263158 C199.061435,3.45263158 200.28267,3.5245614 201.001044,4.24385965 C201.503906,4.74736842 201.791256,5.32280702 201.791256,6.11403509 C201.791256,7.26491228 201.072882,8.27192982 199.995321,8.63157895 C200.85737,9.27894737 201.503906,11.2929825 201.934931,12.3 L203.371679,12.5157895 L203.371679,13.4508772 L200.138996,13.4508772 L200.138996,13.3789474 Z M199.133272,4.96315789 C198.774085,4.60350877 197.912036,4.60350877 197.409174,4.60350877 L196.762638,4.60350877 L196.762638,7.76842105 L197.193662,7.76842105 C197.840199,7.76842105 198.702248,7.84035088 199.205109,7.33684211 C199.492459,6.97719298 199.564296,6.61754386 199.564296,6.18596491 C199.564296,5.75438596 199.420622,5.32280702 199.133272,4.96315789 Z" id="XMLID_130_"></path>
                                <path d="M207.825597,13.5947368 C205.957825,13.5947368 204.44924,12.9473684 204.44924,12.9473684 L204.44924,10.3578947 L205.454963,10.3578947 L205.670475,12.0122807 C205.670475,12.0122807 206.388849,12.2280702 207.46641,12.2280702 C208.687646,12.2280702 209.621532,11.7964912 209.621532,10.7894737 C209.621532,10.0701754 209.190508,9.78245614 208.615809,9.56666667 C206.819874,8.91929825 204.44924,8.70350877 204.44924,6.18596491 C204.44924,4.3877193 205.670475,3.30877193 208.112947,3.30877193 C209.190508,3.30877193 210.339906,3.5245614 211.34563,3.88421053 L211.34563,6.32982456 L210.339906,6.32982456 L210.124394,4.81929825 C210.124394,4.81929825 209.262345,4.60350877 208.400297,4.60350877 C207.46641,4.60350877 206.676199,4.89122807 206.676199,5.89824561 C206.676199,8.12807018 211.920329,6.61754386 211.920329,10.5736842 C211.848492,12.4438596 210.411744,13.5947368 207.825597,13.5947368 Z" id="XMLID_128_"></path>
                                <polygon id="XMLID_126_" points="213.141565 13.3789474 213.141565 12.4438596 214.578313 12.2280702 214.578313 4.60350877 213.141565 4.3877193 213.141565 3.45263158 218.313858 3.45263158 218.313858 4.3877193 216.87711 4.60350877 216.87711 12.2280702 218.313858 12.4438596 218.313858 13.3789474"></polygon>
                                <polygon id="XMLID_124_" points="227.437207 6.18596491 227.221695 4.6754386 225.066573 4.6754386 225.066573 12.2280702 226.503321 12.4438596 226.503321 13.3789474 221.331028 13.3789474 221.331028 12.4438596 222.767776 12.2280702 222.767776 4.6754386 220.612654 4.6754386 220.397142 6.18596491 219.463256 6.18596491 219.463256 3.45263158 228.442931 3.45263158 228.442931 6.18596491"></polygon>
                                <polygon id="XMLID_122_" points="238.787517 4.60350877 235.914021 9.06315789 235.914021 12.2280702 237.350769 12.4438596 237.350769 13.3789474 232.178476 13.3789474 232.178476 12.4438596 233.615224 12.2280702 233.615224 9.06315789 230.66989 4.60350877 229.233142 4.3877193 229.233142 3.45263158 234.477273 3.45263158 234.477273 4.3877193 233.040525 4.60350877 235.051972 7.84035088 237.063419 4.60350877 235.698508 4.3877193 235.698508 3.45263158 240.08059 3.45263158 240.08059 4.3877193"></polygon>
                            </g>
                        </g>
                        <g id="XMLID_65_" transform="translate(43.102440, 29.491228)" fill-rule="nonzero" fill="#000000">
                            <path d="M0.646536597,4.17192982 C0.646536597,1.72631579 2.44247159,0.0719298246 4.74126838,0.0719298246 C6.10617897,0.0719298246 7.11190257,0.719298246 7.75843917,1.65438596 L6.96822777,2.08596491 C6.53720337,1.43859649 5.67515458,0.935087719 4.81310578,0.935087719 C3.08900819,0.935087719 1.79593499,2.22982456 1.79593499,4.17192982 C1.79593499,6.04210526 3.08900819,7.40877193 4.81310578,7.40877193 C5.74699198,7.40877193 6.53720337,6.90526316 6.96822777,6.25789474 L7.83027657,6.68947368 C7.18373997,7.6245614 6.24985377,8.27192982 4.81310578,8.27192982 C2.44247159,8.27192982 0.646536597,6.61754386 0.646536597,4.17192982 Z" id="XMLID_118_"></path>
                            <path d="M8.69232536,4.17192982 C8.69232536,1.79824561 10.2727482,0.0719298246 12.6433823,0.0719298246 C15.0140165,0.0719298246 16.5944393,1.79824561 16.5944393,4.17192982 C16.5944393,6.54561404 15.0140165,8.27192982 12.6433823,8.27192982 C10.2727482,8.27192982 8.69232536,6.54561404 8.69232536,4.17192982 Z M15.5168783,4.17192982 C15.5168783,2.30175439 14.3674799,0.935087719 12.5715449,0.935087719 C10.77561,0.935087719 9.69804896,2.30175439 9.69804896,4.17192982 C9.69804896,6.04210526 10.8474474,7.40877193 12.5715449,7.40877193 C14.3674799,7.40877193 15.5168783,6.04210526 15.5168783,4.17192982 Z" id="XMLID_115_"></path>
                            <polygon id="XMLID_113_" points="17.9593499 8.12807018 17.9593499 0.215789474 18.9650735 0.215789474 18.9650735 7.26491228 22.6287809 7.26491228 22.6287809 8.12807018"></polygon>
                            <polygon id="XMLID_111_" points="23.7781793 8.12807018 23.7781793 0.215789474 24.7839029 0.215789474 24.7839029 7.26491228 28.4476103 7.26491228 28.4476103 8.12807018"></polygon>
                            <polygon id="XMLID_109_" points="29.7406835 8.12807018 29.7406835 0.215789474 34.9129763 0.215789474 34.9129763 1.07894737 30.7464071 1.07894737 30.7464071 3.59649123 34.8411389 3.59649123 34.8411389 4.45964912 30.7464071 4.45964912 30.7464071 7.19298246 34.9129763 7.19298246 34.9129763 8.05614035 29.7406835 8.05614035"></polygon>
                            <path d="M36.2060494,4.17192982 C36.2060494,1.72631579 38.0019844,0.0719298246 40.3007812,0.0719298246 C41.7375292,0.0719298246 42.6714154,0.719298246 43.3897894,1.51052632 L42.599578,2.01403509 C42.0967162,1.36666667 41.2346674,0.935087719 40.3007812,0.935087719 C38.5766836,0.935087719 37.2836104,2.22982456 37.2836104,4.17192982 C37.2836104,6.04210526 38.5766836,7.40877193 40.3007812,7.40877193 C41.2346674,7.40877193 42.0248788,6.97719298 42.4559032,6.54561404 L42.4559032,4.96315789 L39.726082,4.96315789 L39.726082,4.1 L43.3897894,4.1 L43.3897894,6.97719298 C42.6714154,7.84035088 41.5938544,8.34385965 40.3007812,8.34385965 C38.0019844,8.27192982 36.2060494,6.61754386 36.2060494,4.17192982 Z" id="XMLID_107_"></path>
                            <polygon id="XMLID_105_" points="44.9702122 8.12807018 44.9702122 0.215789474 50.142505 0.215789474 50.142505 1.07894737 45.9759358 1.07894737 45.9759358 3.59649123 50.0706676 3.59649123 50.0706676 4.45964912 45.9759358 4.45964912 45.9759358 7.19298246 50.142505 7.19298246 50.142505 8.05614035 44.9702122 8.05614035"></polygon>
                            <path d="M54.452749,4.17192982 C54.452749,1.79824561 56.0331718,0.0719298246 58.403806,0.0719298246 C60.7744401,0.0719298246 62.3548629,1.79824561 62.3548629,4.17192982 C62.3548629,6.54561404 60.7744401,8.27192982 58.403806,8.27192982 C56.0331718,8.27192982 54.452749,6.54561404 54.452749,4.17192982 Z M61.2773019,4.17192982 C61.2773019,2.30175439 60.1279035,0.935087719 58.3319686,0.935087719 C56.5360336,0.935087719 55.4584726,2.30175439 55.4584726,4.17192982 C55.4584726,6.04210526 56.607871,7.40877193 58.3319686,7.40877193 C60.1279035,7.40877193 61.2773019,6.04210526 61.2773019,4.17192982 Z" id="XMLID_102_"></path>
                            <polygon id="XMLID_100_" points="63.8634483 8.12807018 63.8634483 0.215789474 69.0357411 0.215789474 69.0357411 1.07894737 64.8691719 1.07894737 64.8691719 3.59649123 68.9639037 3.59649123 68.9639037 4.45964912 64.8691719 4.45964912 64.8691719 8.05614035 63.8634483 8.05614035"></polygon>
                            <path d="M79.0929771,8.12807018 L78.3746031,6.32982456 L74.4235461,6.32982456 L73.7051721,8.12807018 L72.5557737,8.12807018 L75.7166193,0.215789474 L76.9378551,0.215789474 L80.0987007,8.12807018 L79.0929771,8.12807018 Z M76.4349933,1.22280702 L74.7827331,5.46666667 L78.1590909,5.46666667 L76.4349933,1.22280702 Z" id="XMLID_97_"></path>
                            <path d="M85.7738552,8.12807018 L83.7624081,4.96315789 L82.1819853,4.96315789 L82.1819853,8.12807018 L81.1762617,8.12807018 L81.1762617,0.215789474 L84.3371072,0.215789474 C85.7738552,0.215789474 86.8514162,1.15087719 86.8514162,2.58947368 C86.8514162,4.02807018 85.8456926,4.81929825 84.7681316,4.89122807 L86.9232536,8.12807018 L85.7738552,8.12807018 Z M85.8456926,2.58947368 C85.8456926,1.65438596 85.199156,1.07894737 84.2652698,1.07894737 L82.1819853,1.07894737 L82.1819853,4.1 L84.2652698,4.1 C85.199156,4.1 85.8456926,3.45263158 85.8456926,2.58947368 Z" id="XMLID_94_"></path>
                            <polygon id="XMLID_92_" points="90.2996114 8.12807018 90.2996114 1.07894737 87.7853024 1.07894737 87.7853024 0.215789474 93.7478066 0.215789474 93.7478066 1.07894737 91.2334976 1.07894737 91.2334976 8.12807018"></polygon>
                            <path d="M94.6098554,6.97719298 L95.1845546,6.18596491 C95.6874164,6.76140351 96.5494652,7.33684211 97.6270262,7.33684211 C99.0637742,7.33684211 99.4947986,6.54561404 99.4947986,5.97017544 C99.4947986,3.95614035 94.8253676,5.03508772 94.8253676,2.22982456 C94.8253676,0.935087719 95.974766,0 97.5551888,0 C98.7764246,0 99.7103108,0.431578947 100.356847,1.15087719 L99.7821482,1.87017544 C99.207449,1.22280702 98.3454002,0.935087719 97.4833514,0.935087719 C96.5494652,0.935087719 95.8310912,1.43859649 95.8310912,2.15789474 C95.8310912,3.95614035 100.500522,2.94912281 100.500522,5.89824561 C100.500522,7.04912281 99.7103108,8.2 97.5551888,8.2 C96.2621156,8.27192982 95.256392,7.76842105 94.6098554,6.97719298 Z" id="XMLID_90_"></path>
                            <path d="M110.701433,8.12807018 L109.983059,6.32982456 L106.032002,6.32982456 L105.313628,8.12807018 L104.16423,8.12807018 L107.325075,0.215789474 L108.546311,0.215789474 L111.707157,8.12807018 L110.701433,8.12807018 Z M108.043449,1.22280702 L106.391189,5.46666667 L109.767547,5.46666667 L108.043449,1.22280702 Z" id="XMLID_87_"></path>
                            <polygon id="XMLID_85_" points="118.459872 8.12807018 113.862279 1.79824561 113.862279 8.12807018 112.856555 8.12807018 112.856555 0.215789474 113.862279 0.215789474 118.388035 6.40175439 118.388035 0.215789474 119.393758 0.215789474 119.393758 8.12807018"></polygon>
                            <path d="M121.261531,8.12807018 L121.261531,0.215789474 L123.991352,0.215789474 C126.433823,0.215789474 128.014246,1.94210526 128.014246,4.17192982 C128.014246,6.40175439 126.433823,8.12807018 123.991352,8.12807018 L121.261531,8.12807018 Z M127.008523,4.17192982 C127.008523,2.44561404 125.930962,1.07894737 123.991352,1.07894737 L122.267254,1.07894737 L122.267254,7.26491228 L123.991352,7.26491228 C125.859124,7.26491228 127.008523,5.89824561 127.008523,4.17192982 Z" id="XMLID_82_"></path>
                            <path d="M132.180815,6.97719298 L132.755515,6.18596491 C133.258376,6.76140351 134.120425,7.33684211 135.197986,7.33684211 C136.634734,7.33684211 137.065759,6.54561404 137.065759,5.97017544 C137.065759,3.95614035 132.396328,5.03508772 132.396328,2.22982456 C132.396328,0.935087719 133.545726,0 135.126149,0 C136.347385,0 137.281271,0.431578947 137.927807,1.15087719 L137.353108,1.87017544 C136.778409,1.22280702 135.91636,0.935087719 135.054311,0.935087719 C134.120425,0.935087719 133.402051,1.43859649 133.402051,2.15789474 C133.402051,3.95614035 138.071482,2.94912281 138.071482,5.89824561 C138.071482,7.04912281 137.281271,8.2 135.126149,8.2 C133.833076,8.27192982 132.827352,7.76842105 132.180815,6.97719298 Z" id="XMLID_80_"></path>
                            <path d="M139.220881,4.17192982 C139.220881,1.72631579 141.016816,0.0719298246 143.315612,0.0719298246 C144.680523,0.0719298246 145.686247,0.719298246 146.332783,1.65438596 L145.542572,2.08596491 C145.111547,1.43859649 144.249499,0.935087719 143.38745,0.935087719 C141.663352,0.935087719 140.370279,2.22982456 140.370279,4.17192982 C140.370279,6.04210526 141.663352,7.40877193 143.38745,7.40877193 C144.321336,7.40877193 145.111547,6.90526316 145.542572,6.25789474 L146.404621,6.68947368 C145.758084,7.6245614 144.824198,8.27192982 143.38745,8.27192982 C141.016816,8.27192982 139.220881,6.61754386 139.220881,4.17192982 Z" id="XMLID_78_"></path>
                            <polygon id="XMLID_76_" points="147.554019 8.12807018 147.554019 0.215789474 148.559743 0.215789474 148.559743 8.12807018"></polygon>
                            <polygon id="XMLID_74_" points="150.427515 8.12807018 150.427515 0.215789474 155.599808 0.215789474 155.599808 1.07894737 151.433239 1.07894737 151.433239 3.59649123 155.52797 3.59649123 155.52797 4.45964912 151.433239 4.45964912 151.433239 7.19298246 155.599808 7.19298246 155.599808 8.05614035 150.427515 8.05614035"></polygon>
                            <polygon id="XMLID_72_" points="162.783548 8.12807018 158.185954 1.79824561 158.185954 8.12807018 157.180231 8.12807018 157.180231 0.215789474 158.185954 0.215789474 162.71171 6.40175439 162.71171 0.215789474 163.717434 0.215789474 163.717434 8.12807018"></polygon>
                            <path d="M165.226019,4.17192982 C165.226019,1.72631579 167.021954,0.0719298246 169.320751,0.0719298246 C170.685662,0.0719298246 171.691385,0.719298246 172.337922,1.65438596 L171.54771,2.08596491 C171.116686,1.43859649 170.254637,0.935087719 169.392588,0.935087719 C167.668491,0.935087719 166.375418,2.22982456 166.375418,4.17192982 C166.375418,6.04210526 167.668491,7.40877193 169.392588,7.40877193 C170.326475,7.40877193 171.116686,6.90526316 171.54771,6.25789474 L172.409759,6.68947368 C171.763223,7.6245614 170.829336,8.27192982 169.392588,8.27192982 C167.021954,8.27192982 165.226019,6.61754386 165.226019,4.17192982 Z" id="XMLID_70_"></path>
                            <polygon id="XMLID_68_" points="173.559158 8.12807018 173.559158 0.215789474 178.73145 0.215789474 178.73145 1.07894737 174.564881 1.07894737 174.564881 3.59649123 178.659613 3.59649123 178.659613 4.45964912 174.564881 4.45964912 174.564881 7.19298246 178.73145 7.19298246 178.73145 8.05614035 173.559158 8.05614035"></polygon>
                            <path d="M179.809011,6.97719298 L180.383711,6.18596491 C180.886572,6.76140351 181.748621,7.33684211 182.826182,7.33684211 C184.26293,7.33684211 184.693955,6.54561404 184.693955,5.97017544 C184.693955,3.95614035 180.024524,5.03508772 180.024524,2.22982456 C180.024524,0.935087719 181.173922,0 182.754345,0 C183.975581,0 184.909467,0.431578947 185.556003,1.15087719 L184.981304,1.87017544 C184.406605,1.22280702 183.544556,0.935087719 182.682507,0.935087719 C181.748621,0.935087719 181.030247,1.43859649 181.030247,2.15789474 C181.030247,3.95614035 185.699678,2.94912281 185.699678,5.89824561 C185.699678,7.04912281 184.909467,8.2 182.754345,8.2 C181.533109,8.27192982 180.455548,7.76842105 179.809011,6.97719298 Z" id="XMLID_66_"></path>
                        </g>
                    </g>
                </g>
            </g>
        </g>
    </g>
</svg>