<?xml version="1.0" encoding="UTF-8"?>
<svg width="153px" height="39px" viewBox="0 0 153 39" version="1.1" xmlns="http://www.w3.org/2000/svg" xmlns:xlink="http://www.w3.org/1999/xlink">
    <!-- Generator: Sketch 51.2 (57519) - http://www.bohemiancoding.com/sketch -->
    <title>DEPARTMENT OF UNIT N</title>
    <desc>Created with Sketch.</desc>
    <defs></defs>
    <g id="Symbols" stroke="none" stroke-width="1" fill="none" fill-rule="evenodd">
        <g id="Header/Mobile" transform="translate(-84.000000, -183.000000)" fill="#000000">
            <path d="M88.67,197 L84.41,197 L84.41,183.66 L88.67,183.66 C92.81,183.66 95.41,186.68 95.41,190.34 C95.41,194.04 92.81,197 88.67,197 Z M88.67,195.96 C92.19,195.96 94.21,193.46 94.21,190.34 C94.21,187.22 92.21,184.7 88.67,184.7 L85.55,184.7 L85.55,195.96 L88.67,195.96 Z M106.71,197 L98.25,197 L98.25,183.66 L106.71,183.66 L106.71,184.7 L99.39,184.7 L99.39,189.64 L106.57,189.64 L106.57,190.68 L99.39,190.68 L99.39,195.96 L106.71,195.96 L106.71,197 Z M110.67,197 L109.53,197 L109.53,183.66 L114.53,183.66 C117.09,183.66 118.55,185.46 118.55,187.56 C118.55,189.66 117.07,191.46 114.53,191.46 L110.67,191.46 L110.67,197 Z M114.41,190.42 C116.17,190.42 117.35,189.24 117.35,187.56 C117.35,185.88 116.17,184.7 114.41,184.7 L110.67,184.7 L110.67,190.42 L114.41,190.42 Z M130.35,197 L129.03,197 L127.71,193.72 L120.65,193.72 L119.33,197 L118.01,197 L123.47,183.66 L124.89,183.66 L130.35,197 Z M127.33,192.68 L124.17,184.88 L121.03,192.68 L127.33,192.68 Z M141.51,197 L140.13,197 L136.39,191.48 L133.45,191.48 L133.45,197 L132.31,197 L132.31,183.66 L137.29,183.66 C139.59,183.66 141.35,185.12 141.35,187.56 C141.35,189.98 139.63,191.32 137.65,191.4 L141.51,197 Z M137.19,190.44 C138.95,190.44 140.15,189.24 140.15,187.56 C140.15,185.88 138.95,184.7 137.19,184.7 L133.45,184.7 L133.45,190.44 L137.19,190.44 Z M148.55,197 L147.39,197 L147.39,184.7 L143.03,184.7 L143.03,183.66 L152.91,183.66 L152.91,184.7 L148.55,184.7 L148.55,197 Z M167.75,197 L166.59,197 L166.59,185.22 L161.73,197 L161.29,197 L156.41,185.22 L156.41,197 L155.27,197 L155.27,183.66 L156.97,183.66 L161.51,194.66 L166.03,183.66 L167.75,183.66 L167.75,197 Z M179.53,197 L171.07,197 L171.07,183.66 L179.53,183.66 L179.53,184.7 L172.21,184.7 L172.21,189.64 L179.39,189.64 L179.39,190.68 L172.21,190.68 L172.21,195.96 L179.53,195.96 L179.53,197 Z M193.01,197 L191.89,197 L183.49,185.54 L183.49,197 L182.35,197 L182.35,183.66 L183.51,183.66 L191.87,194.96 L191.87,183.66 L193.01,183.66 L193.01,197 Z M200.89,197 L199.73,197 L199.73,184.7 L195.37,184.7 L195.37,183.66 L205.25,183.66 L205.25,184.7 L200.89,184.7 L200.89,197 Z M218.77,197.24 C214.85,197.24 212.29,194.24 212.29,190.34 C212.29,186.44 214.85,183.44 218.77,183.44 C222.67,183.44 225.25,186.44 225.25,190.34 C225.25,194.24 222.67,197.24 218.77,197.24 Z M218.77,196.2 C221.97,196.2 224.05,193.7 224.05,190.34 C224.05,186.94 221.97,184.48 218.77,184.48 C215.53,184.48 213.49,186.94 213.49,190.34 C213.49,193.7 215.53,196.2 218.77,196.2 Z M229.21,197 L228.07,197 L228.07,183.66 L236.53,183.66 L236.53,184.7 L229.21,184.7 L229.21,189.64 L236.39,189.64 L236.39,190.68 L229.21,190.68 L229.21,197 Z M113.83,221.24 C109.95,221.24 108.05,219.02 108.05,215.74 L108.05,207.66 L110.41,207.66 L110.41,215.66 C110.41,217.78 111.59,219.16 113.83,219.16 C116.05,219.16 117.23,217.78 117.23,215.66 L117.23,207.66 L119.59,207.66 L119.59,215.72 C119.59,219.04 117.69,221.24 113.83,221.24 Z M133.99,221 L131.73,221 L124.77,211.48 L124.77,221 L122.43,221 L122.43,207.66 L124.83,207.66 L131.65,216.92 L131.65,207.66 L133.99,207.66 L133.99,221 Z M139.17,221 L136.83,221 L136.83,207.66 L139.17,207.66 L139.17,221 Z M147.53,221 L145.19,221 L145.19,209.72 L141.15,209.72 L141.15,207.66 L151.57,207.66 L151.57,209.72 L147.53,209.72 L147.53,221 Z M170.25,221 L167.99,221 L161.03,211.48 L161.03,221 L158.69,221 L158.69,207.66 L161.09,207.66 L167.91,216.92 L167.91,207.66 L170.25,207.66 L170.25,221 Z M185.09,221 L182.43,221 L181.45,218.44 L175.33,218.44 L174.35,221 L171.69,221 L176.93,207.66 L179.85,207.66 L185.09,221 Z M180.79,216.38 L178.39,210.02 L175.99,216.38 L180.79,216.38 Z M200.41,221 L198.07,221 L198.07,211.1 L193.97,221 L192.97,221 L188.89,211.1 L188.89,221 L186.55,221 L186.55,207.66 L189.85,207.66 L193.47,216.44 L197.11,207.66 L200.41,207.66 L200.41,221 Z M212.39,221 L203.25,221 L203.25,207.66 L212.39,207.66 L212.39,209.72 L205.59,209.72 L205.59,213.18 L212.25,213.18 L212.25,215.24 L205.59,215.24 L205.59,218.94 L212.39,218.94 L212.39,221 Z" id="DEPARTMENT-OF-UNIT-N"></path>
        </g>
    </g>
</svg>