<?xml version="1.0" encoding="UTF-8"?>
<svg width="190px" height="54px" viewBox="0 0 190 54" version="1.1" xmlns="http://www.w3.org/2000/svg" xmlns:xlink="http://www.w3.org/1999/xlink">
    <!-- Generator: Sketch 51.2 (57519) - http://www.bohemiancoding.com/sketch -->
    <title>DEPARTMENT OF UNIT N</title>
    <desc>Created with Sketch.</desc>
    <defs></defs>
    <g id="Symbols" stroke="none" stroke-width="1" fill="none" fill-rule="evenodd">
        <g id="Header/Tablet" transform="translate(-22.000000, -85.000000)" fill="#000000">
            <path d="M26.92,99 L22.66,99 L22.66,85.66 L26.92,85.66 C31.06,85.66 33.66,88.68 33.66,92.34 C33.66,96.04 31.06,99 26.92,99 Z M26.92,97.96 C30.44,97.96 32.46,95.46 32.46,92.34 C32.46,89.22 30.46,86.7 26.92,86.7 L23.8,86.7 L23.8,97.96 L26.92,97.96 Z M44.96,99 L36.5,99 L36.5,85.66 L44.96,85.66 L44.96,86.7 L37.64,86.7 L37.64,91.64 L44.82,91.64 L44.82,92.68 L37.64,92.68 L37.64,97.96 L44.96,97.96 L44.96,99 Z M48.92,99 L47.78,99 L47.78,85.66 L52.78,85.66 C55.34,85.66 56.8,87.46 56.8,89.56 C56.8,91.66 55.32,93.46 52.78,93.46 L48.92,93.46 L48.92,99 Z M52.66,92.42 C54.42,92.42 55.6,91.24 55.6,89.56 C55.6,87.88 54.42,86.7 52.66,86.7 L48.92,86.7 L48.92,92.42 L52.66,92.42 Z M68.6,99 L67.28,99 L65.96,95.72 L58.9,95.72 L57.58,99 L56.26,99 L61.72,85.66 L63.14,85.66 L68.6,99 Z M65.58,94.68 L62.42,86.88 L59.28,94.68 L65.58,94.68 Z M79.76,99 L78.38,99 L74.64,93.48 L71.7,93.48 L71.7,99 L70.56,99 L70.56,85.66 L75.54,85.66 C77.84,85.66 79.6,87.12 79.6,89.56 C79.6,91.98 77.88,93.32 75.9,93.4 L79.76,99 Z M75.44,92.44 C77.2,92.44 78.4,91.24 78.4,89.56 C78.4,87.88 77.2,86.7 75.44,86.7 L71.7,86.7 L71.7,92.44 L75.44,92.44 Z M86.8,99 L85.64,99 L85.64,86.7 L81.28,86.7 L81.28,85.66 L91.16,85.66 L91.16,86.7 L86.8,86.7 L86.8,99 Z M106,99 L104.84,99 L104.84,87.22 L99.98,99 L99.54,99 L94.66,87.22 L94.66,99 L93.52,99 L93.52,85.66 L95.22,85.66 L99.76,96.66 L104.28,85.66 L106,85.66 L106,99 Z M117.78,99 L109.32,99 L109.32,85.66 L117.78,85.66 L117.78,86.7 L110.46,86.7 L110.46,91.64 L117.64,91.64 L117.64,92.68 L110.46,92.68 L110.46,97.96 L117.78,97.96 L117.78,99 Z M131.26,99 L130.14,99 L121.74,87.54 L121.74,99 L120.6,99 L120.6,85.66 L121.76,85.66 L130.12,96.96 L130.12,85.66 L131.26,85.66 L131.26,99 Z M139.14,99 L137.98,99 L137.98,86.7 L133.62,86.7 L133.62,85.66 L143.5,85.66 L143.5,86.7 L139.14,86.7 L139.14,99 Z M157.02,99.24 C153.1,99.24 150.54,96.24 150.54,92.34 C150.54,88.44 153.1,85.44 157.02,85.44 C160.92,85.44 163.5,88.44 163.5,92.34 C163.5,96.24 160.92,99.24 157.02,99.24 Z M157.02,98.2 C160.22,98.2 162.3,95.7 162.3,92.34 C162.3,88.94 160.22,86.48 157.02,86.48 C153.78,86.48 151.74,88.94 151.74,92.34 C151.74,95.7 153.78,98.2 157.02,98.2 Z M167.46,99 L166.32,99 L166.32,85.66 L174.78,85.66 L174.78,86.7 L167.46,86.7 L167.46,91.64 L174.64,91.64 L174.64,92.68 L167.46,92.68 L167.46,99 Z M33.96,138.432 C26.976,138.432 23.556,134.436 23.556,128.532 L23.556,113.988 L27.804,113.988 L27.804,128.388 C27.804,132.204 29.928,134.688 33.96,134.688 C37.956,134.688 40.08,132.204 40.08,128.388 L40.08,113.988 L44.328,113.988 L44.328,128.496 C44.328,134.472 40.908,138.432 33.96,138.432 Z M70.248,138 L66.18,138 L53.652,120.864 L53.652,138 L49.44,138 L49.44,113.988 L53.76,113.988 L66.036,130.656 L66.036,113.988 L70.248,113.988 L70.248,138 Z M79.572,138 L75.36,138 L75.36,113.988 L79.572,113.988 L79.572,138 Z M94.62,138 L90.408,138 L90.408,117.696 L83.136,117.696 L83.136,113.988 L101.892,113.988 L101.892,117.696 L94.62,117.696 L94.62,138 Z M135.516,138 L131.448,138 L118.92,120.864 L118.92,138 L114.708,138 L114.708,113.988 L119.028,113.988 L131.304,130.656 L131.304,113.988 L135.516,113.988 L135.516,138 Z M162.228,138 L157.44,138 L155.676,133.392 L144.66,133.392 L142.896,138 L138.108,138 L147.54,113.988 L152.796,113.988 L162.228,138 Z M154.488,129.684 L150.168,118.236 L145.848,129.684 L154.488,129.684 Z M189.804,138 L185.592,138 L185.592,120.18 L178.212,138 L176.412,138 L169.068,120.18 L169.068,138 L164.856,138 L164.856,113.988 L170.796,113.988 L177.312,129.792 L183.864,113.988 L189.804,113.988 L189.804,138 Z M211.368,138 L194.916,138 L194.916,113.988 L211.368,113.988 L211.368,117.696 L199.128,117.696 L199.128,123.924 L211.116,123.924 L211.116,127.632 L199.128,127.632 L199.128,134.292 L211.368,134.292 L211.368,138 Z" id="DEPARTMENT-OF-UNIT-N"></path>
        </g>
    </g>
</svg>