<?xml version="1.0" encoding="UTF-8"?>
<svg width="30px" height="30px" viewBox="0 0 30 30" version="1.1" xmlns="http://www.w3.org/2000/svg" xmlns:xlink="http://www.w3.org/1999/xlink">
    <!-- Generator: Sketch 50.2 (55047) - http://www.bohemiancoding.com/sketch -->
    <title>Group 6</title>
    <desc>Created with Sketch.</desc>
    <defs></defs>
    <g id="People-Bio-Page" stroke="none" stroke-width="1" fill="none" fill-rule="evenodd">
        <g id="Medium-Devices:-Desktops--Copy" transform="translate(-116.000000, -654.000000)">
            <g id="Group-6" transform="translate(116.000000, 654.000000)">
                <g id="Group-Copy-3" fill="#373535">
                    <g id="Group-2">
                        <rect id="Rectangle-2" x="0" y="0" width="30" height="30" rx="2"></rect>
                    </g>
                </g>
                <g id="linkedin-icon-alone" transform="translate(4.000000, 3.000000)" fill="#FFFFFF" fill-rule="nonzero">
                    <path d="M22.2333333,22.2333333 L17.6333333,22.2333333 L17.6333333,15.1416667 C17.6333333,13.4166667 17.6333333,11.3083333 15.3333333,11.3083333 C13.0333333,11.3083333 12.65,13.225 12.65,15.1416667 L12.65,22.425 L8.05,22.425 L8.05,7.66666667 L12.4583333,7.66666667 L12.4583333,9.58333333 L12.4583333,9.58333333 C13.0333333,8.43333333 14.5666667,7.28333333 16.675,7.28333333 C21.275,7.28333333 22.0416667,10.35 22.0416667,14.1833333 L22.0416667,22.2333333 L22.2333333,22.2333333 Z M3.06666667,5.75 C1.53333333,5.75 0.383333333,4.6 0.383333333,3.06666667 C0.383333333,1.53333333 1.53333333,0.383333333 3.06666667,0.383333333 C4.6,0.383333333 5.75,1.53333333 5.75,3.06666667 C5.55833333,4.40833333 4.40833333,5.75 3.06666667,5.75 Z M5.175,22.2333333 L0.575,22.2333333 L0.575,7.66666667 L5.175,7.66666667 L5.175,22.2333333 Z" id="Shape"></path>
                </g>
            </g>
        </g>
    </g>
</svg>