<?xml version="1.0" encoding="UTF-8"?>
<svg width="30px" height="30px" viewBox="0 0 30 30" version="1.1" xmlns="http://www.w3.org/2000/svg" xmlns:xlink="http://www.w3.org/1999/xlink">
    <!-- Generator: Sketch 50.2 (55047) - http://www.bohemiancoding.com/sketch -->
    <title>Group</title>
    <desc>Created with Sketch.</desc>
    <defs></defs>
    <g id="People-Bio-Page" stroke="none" stroke-width="1" fill="none" fill-rule="evenodd">
        <g id="Medium-Devices:-Desktops--Copy" transform="translate(-26.000000, -654.000000)">
            <g id="Group" transform="translate(26.000000, 654.000000)">
                <rect id="Rectangle-2" fill="#373535" x="0" y="0" width="30" height="30" rx="2"></rect>
                <path d="M23.2190909,8.81727273 C24.1422727,8.26227273 24.8527273,7.38545455 25.1868182,6.34090909 C24.3222727,6.84545455 23.3636364,7.21363636 22.3436364,7.41818182 C21.5281818,6.54545455 20.3663636,6 19.0763636,6 C16.6054545,6 14.6009091,8.00454545 14.6009091,10.4727273 C14.6009091,10.8272727 14.6418182,11.1681818 14.7168182,11.4954545 C10.9968182,11.3181818 7.69818182,9.53181818 5.49045455,6.83181818 C5.10318182,7.48772727 4.885,8.25136364 4.885,9.08318182 C4.885,10.6377273 5.67590909,12.0054545 6.87590909,12.8086364 C6.14227273,12.7854545 5.45090909,12.5836364 4.84818182,12.2495455 L4.84818182,12.3040909 C4.84818182,14.4722727 6.38909091,16.2831818 8.43863636,16.695 C8.06227273,16.7959091 7.66681818,16.8504545 7.25909091,16.8504545 C6.97272727,16.8504545 6.7,16.8231818 6.42727273,16.7713636 C7,18.5495455 8.65,19.8436364 10.6136364,19.8804545 C9.08636364,21.0804545 7.15,21.795 5.06363636,21.795 C4.70909091,21.795 4.35454545,21.7745455 4,21.7336364 C5.99090909,23.0018182 8.33636364,23.7436364 10.8727273,23.7436364 C19.1090909,23.7436364 23.6090909,16.9254545 23.6090909,11.0209091 C23.6090909,10.83 23.6090909,10.6390909 23.5954545,10.4481818 C24.4681818,9.82090909 25.2318182,9.03 25.8318182,8.13 C24.985,8.46681818 24.1259091,8.70818182 23.2190909,8.81727273 Z" id="Shape" fill="#FFFFFF"></path>
            </g>
        </g>
    </g>
</svg>