<?xml version="1.0" encoding="UTF-8"?>
<svg width="30px" height="30px" viewBox="0 0 30 30" version="1.1" xmlns="http://www.w3.org/2000/svg" xmlns:xlink="http://www.w3.org/1999/xlink">
    <!-- Generator: Sketch 50.2 (55047) - http://www.bohemiancoding.com/sketch -->
    <title>Group 7</title>
    <desc>Created with Sketch.</desc>
    <defs></defs>
    <g id="People-Bio-Page" stroke="none" stroke-width="1" fill="none" fill-rule="evenodd">
        <g id="Medium-Devices:-Desktops--Copy" transform="translate(-71.000000, -654.000000)">
            <g id="Group-7" transform="translate(71.000000, 654.000000)">
                <g id="Group-Copy-2" fill="#373535">
                    <g id="Group-2">
                        <rect id="Rectangle-2" x="0" y="0" width="30" height="30" rx="2"></rect>
                    </g>
                </g>
                <path d="M4,14.903875 C4,13.124625 4.22,11.342625 4.22,11.342625 C4.22,11.342625 4.4345,9.830125 5.0945,9.1605 C5.9305,8.284625 7.0305,8.312125 7.52,8.22 C9.28,8.0495 15,8 15,8 C15,8 19.62275,8.0055 22.7,8.22825 C23.13175,8.2805 24.0695,8.28325 24.9055,9.1605 C25.5655,9.82875 25.78,11.344 25.78,11.344 C25.78,11.344 26,13.12325 26,14.90525 L26,16.635 C26,18.417 25.78,20.19625 25.78,20.19625 C25.78,20.19625 25.5655,21.7115 24.9055,22.37975 C24.0695,23.257 23.13175,23.25975 22.7,23.312 C19.62275,23.53475 15,23.54025 15,23.54025 C15,23.54025 9.28,23.489375 7.52,23.32025 C7.0305,23.228125 5.9305,23.255625 5.0945,22.37975 C4.4345,21.710125 4.22,20.197625 4.22,20.197625 C4.22,20.197625 4,18.417 4,16.636375 L4,14.903875 L4,14.903875 Z M12.522,18.920125 L12.522,12.177625 L19.0065,15.560125 L12.5265,18.920125 L12.522,18.920125 Z" id="Shape" fill="#FFFFFF"></path>
            </g>
        </g>
    </g>
</svg>