<?xml version="1.0" encoding="UTF-8"?>
<svg width="263px" height="94px" viewBox="0 0 263 94" version="1.1" xmlns="http://www.w3.org/2000/svg" xmlns:xlink="http://www.w3.org/1999/xlink">
    <!-- Generator: Sketch 51.2 (57519) - http://www.bohemiancoding.com/sketch -->
    <title>OSU Logo/ohio state logo plus asc vertical</title>
    <desc>Created with Sketch.</desc>
    <defs></defs>
    <g id="Symbols" stroke="none" stroke-width="1" fill="none" fill-rule="evenodd">
        <g id="Header/Mobile" transform="translate(-29.000000, -56.000000)">
            <g id="OSU-Logo/ohio-state-logo-plus-asc-vertical" transform="translate(29.000000, 56.000000)">
                <g id="ohio-state-logo-plus-asc-vertical">
                    <g id="Group" transform="translate(0.000000, 54.000000)" fill="#000000" fill-rule="nonzero">
                        <polygon id="Shape" points="11.1 4.3 10.9 2.6 7.8 2.6 7.8 13.6 9.5 13.8 9.5 14.8 3.6 14.8 3.6 13.8 5.3 13.6 5.3 2.6 2.2 2.6 2 4.3 0.9 4.3 0.9 1.2 12.4 1.2 12.4 4.3"></polygon>
                        <polygon id="Shape" points="19.7 14.8 19.7 13.8 21.2 13.6 21.2 9.9 17.1 9.9 17.1 13.6 18.6 13.8 18.6 14.8 13 14.8 13 13.8 14.6 13.6 14.6 5.3 13 5.1 13 4.1 18.6 4.1 18.6 5.1 17.1 5.3 17.1 8.5 21.2 8.5 21.2 5.3 19.7 5.1 19.7 4.1 25.3 4.1 25.3 5.1 23.7 5.3 23.7 13.6 25.3 13.8 25.3 14.8"></polygon>
                        <polygon id="Shape" points="35.7 14.8 26.4 14.8 26.4 13.8 28 13.6 28 5.3 26.4 5.1 26.4 4.1 35.7 4.1 35.7 6.9 34.7 6.9 34.5 5.4 30.6 5.4 30.6 8.6 33 8.6 33.2 7.2 34.1 7.2 34.1 11.2 33.2 11.2 33 9.8 30.5 9.8 30.5 13.5 34.4 13.5 34.6 12 35.6 12 35.6 14.8"></polygon>
                        <path d="M48.8,15.1 C44.5,15.1 42.7,12.6 42.7,8 C42.7,3.4 44.6,0.9 48.8,0.9 C53.1,0.9 54.9,3.4 54.9,8 C54.9,12.6 53,15.1 48.8,15.1 Z M48.8,2.4 C46.5,2.4 45.4,4.2 45.4,8 C45.4,11.8 46.5,13.6 48.8,13.6 C51.1,13.6 52.2,11.8 52.2,8 C52.2,4.2 51.1,2.4 48.8,2.4 Z" id="Shape"></path>
                        <polygon id="Shape" points="62.6 14.8 62.6 13.8 64.1 13.6 64.1 9.9 60 9.9 60 13.6 61.5 13.8 61.5 14.8 56 14.8 56 13.8 57.6 13.6 57.6 5.3 56 5.1 56 4.1 61.6 4.1 61.6 5.1 60.1 5.3 60.1 8.5 64.2 8.5 64.2 5.3 62.7 5.1 62.7 4.1 68.3 4.1 68.3 5.1 66.7 5.3 66.7 13.6 68.3 13.8 68.3 14.8"></polygon>
                        <polygon id="Shape" points="69.6 14.8 69.6 13.8 71.2 13.6 71.2 5.3 69.6 5.1 69.6 4.1 75.3 4.1 75.3 5.1 73.7 5.3 73.7 13.6 75.3 13.8 75.3 14.8"></polygon>
                        <path d="M81.3,15 C77.7,15 76.1,13 76.1,9.4 C76.1,5.8 77.7,3.9 81.3,3.9 C84.9,3.9 86.5,5.9 86.5,9.5 C86.5,13.1 84.9,15 81.3,15 Z M81.3,5.3 C79.6,5.3 78.7,6.5 78.7,9.4 C78.7,12.3 79.6,13.6 81.3,13.6 C83,13.6 84,12.4 84,9.5 C83.9,6.6 83,5.3 81.3,5.3 Z" id="Shape"></path>
                        <path d="M97.7,15.1 C95.3,15.1 93.4,14.3 93.4,14.3 L93.4,11.4 L94.6,11.4 L94.9,13.3 C94.9,13.3 95.8,13.6 97.3,13.6 C98.9,13.6 100.3,13.1 100.3,11.3 C100.3,9.7 99.2,9.5 97.8,9 C95.7,8.3 93.4,7.7 93.4,4.7 C93.4,2.3 94.9,0.9 98,0.9 C99.4,0.9 100.9,1.2 102.1,1.7 L102.1,4.4 L101,4.4 L100.7,2.6 C100.7,2.6 99.5,2.3 98.3,2.3 C97.1,2.3 95.9,2.7 95.9,4.3 C95.9,7.7 102.8,5.5 102.8,10.9 C102.8,13.6 101.1,15.1 97.7,15.1 Z" id="Shape"></path>
                        <polygon id="Shape" points="112.5 7.1 112.3 5.4 109.9 5.4 109.9 13.6 111.5 13.8 111.5 14.8 105.8 14.8 105.8 13.8 107.4 13.6 107.4 5.4 105 5.4 104.8 7.1 103.8 7.1 103.8 4.1 113.6 4.1 113.6 7.1"></polygon>
                        <path d="M120.1,14.8 L120.1,13.8 L121.6,13.6 L120.8,11.7 L116.7,11.7 L115.9,13.6 L117.4,13.8 L117.4,14.8 L112.7,14.8 L112.7,13.8 L114.2,13.6 L117.9,4.1 L120.3,4.1 L124,13.6 L125.5,13.8 L125.5,14.8 L120.1,14.8 Z M118.8,6.2 L117.2,10.5 L120.3,10.5 L118.8,6.2 Z" id="Shape"></path>
                        <polygon id="Shape" points="133.7 7.1 133.5 5.4 131.1 5.4 131.1 13.6 132.7 13.8 132.7 14.8 127 14.8 127 13.8 128.6 13.6 128.6 5.4 126.2 5.4 126 7.1 125 7.1 125 4.1 134.8 4.1 134.8 7.1"></polygon>
                        <polygon id="Shape" points="145 14.8 135.7 14.8 135.7 13.8 137.3 13.6 137.3 5.3 135.7 5.1 135.7 4.1 145 4.1 145 6.9 144 6.9 143.8 5.4 139.9 5.4 139.9 8.6 142.4 8.6 142.6 7.2 143.5 7.2 143.5 11.2 142.6 11.2 142.4 9.8 139.9 9.8 139.9 13.5 143.8 13.5 144 12 145 12"></polygon>
                        <path d="M163.7,2.4 L163.7,9.4 C163.7,11.8 163.6,12.8 162.5,13.9 C161.7,14.7 160.4,15.1 158.4,15.1 C156.5,15.1 155,14.6 154.1,13.7 C152.9,12.5 153.1,10.8 153.1,9.3 L153.1,2.5 L151.4,2.3 L151.4,1.3 L157.3,1.3 L157.3,2.3 L155.6,2.5 L155.6,10.5 C155.6,12.8 156.8,13.7 158.8,13.7 C159.8,13.7 160.7,13.5 161.2,12.9 C161.7,12.4 162,11.6 162,10.5 L162,2.5 L160.3,2.3 L160.3,1.3 L165.3,1.3 L165.3,2.3 L163.7,2.4 Z" id="Shape"></path>
                        <polygon id="Shape" points="176.6 5.3 176.6 14.8 174.7 14.8 169.2 7.1 169.2 13.5 170.8 13.7 170.8 14.7 166 14.7 166 13.7 167.6 13.5 167.6 5.2 166 5 166 4 169.7 4 174.9 11.3 174.9 5.2 173.3 5 173.3 4 178.1 4 178.1 5"></polygon>
                        <polygon id="Shape" points="179.5 14.8 179.5 13.8 181.1 13.6 181.1 5.3 179.5 5.1 179.5 4.1 185.2 4.1 185.2 5.1 183.6 5.3 183.6 13.6 185.2 13.8 185.2 14.8"></polygon>
                        <polygon id="Shape" points="197.1 5.3 193.5 14.8 191.1 14.8 187.5 5.3 186 5.1 186 4.1 191.6 4.1 191.6 5.1 190.1 5.3 192.8 12.7 195.5 5.3 194 5.1 194 4.1 198.7 4.1 198.7 5.1"></polygon>
                        <polygon id="Shape" points="208.8 14.8 199.5 14.8 199.5 13.8 201.1 13.6 201.1 5.3 199.5 5.1 199.5 4.1 208.8 4.1 208.8 6.9 207.8 6.9 207.6 5.4 203.7 5.4 203.7 8.6 206.2 8.6 206.4 7.2 207.3 7.2 207.3 11.2 206.4 11.2 206.2 9.8 203.7 9.8 203.7 13.5 207.6 13.5 207.8 12 208.8 12"></polygon>
                        <path d="M218.2,14.8 L217.2,12.3 C216.5,10.7 216.1,9.9 214.7,9.9 L214.5,9.9 L214.5,13.5 L216,13.7 L216,14.7 L210.4,14.7 L210.4,13.7 L212,13.5 L212,5.2 L210.4,5 L210.4,4 L215.8,4 C216.9,4 218.2,4.1 219,4.8 C219.6,5.3 219.9,6 219.9,6.8 C219.9,8 219.1,9.2 218,9.5 C218.9,10.2 219.7,12.4 220.1,13.5 L221.6,13.7 L221.6,14.7 L218.2,14.7 L218.2,14.8 Z M217,5.7 C216.6,5.3 215.7,5.3 215.2,5.3 L214.5,5.3 L214.5,8.7 L214.9,8.7 C215.6,8.7 216.6,8.8 217.1,8.2 C217.4,7.8 217.5,7.4 217.5,6.9 C217.5,6.4 217.4,6.1 217,5.7 Z" id="Shape"></path>
                        <path d="M226.5,15 C224.5,15 222.8,14.3 222.8,14.3 L222.8,11.5 L223.9,11.5 L224.2,13.3 C224.2,13.3 225,13.5 226.2,13.5 C227.5,13.5 228.5,13.1 228.5,11.9 C228.5,11.1 228,10.8 227.4,10.6 C225.4,9.9 222.9,9.6 222.9,7 C222.9,5.1 224.2,3.9 226.9,3.9 C228.1,3.9 229.4,4.1 230.4,4.5 L230.4,7.2 L229.3,7.2 L229,5.5 C229,5.5 228.1,5.3 227.1,5.3 C226.1,5.3 225.2,5.6 225.2,6.7 C225.2,9.1 230.9,7.5 230.9,11.8 C230.9,13.9 229.4,15 226.5,15 Z" id="Shape"></path>
                        <polygon id="Shape" points="232.3 14.8 232.3 13.8 233.9 13.6 233.9 5.3 232.3 5.1 232.3 4.1 238 4.1 238 5.1 236.4 5.3 236.4 13.6 238 13.8 238 14.8"></polygon>
                        <polygon id="Shape" points="247.9 7.1 247.7 5.4 245.3 5.4 245.3 13.6 246.9 13.8 246.9 14.8 241.2 14.8 241.2 13.8 242.8 13.6 242.8 5.4 240.4 5.4 240.2 7.1 239.2 7.1 239.2 4.1 249 4.1 249 7.1"></polygon>
                        <polygon id="Shape" points="260.2 5.3 257.1 10.2 257.1 13.6 258.7 13.8 258.7 14.8 253 14.8 253 13.8 254.6 13.6 254.6 10.2 251.4 5.3 249.9 5.1 249.9 4.1 255.6 4.1 255.6 5.1 254.1 5.3 256.3 8.8 258.5 5.3 257 5.1 257 4.1 261.7 4.1 261.7 5.1"></polygon>
                    </g>
                    <g id="Group" transform="translate(114.000000, 0.000000)" fill-rule="nonzero">
                        <path d="M9.6,12.3 L12.5,9.4 L22,9.4 L24.9,12.3 L24.9,31.7 L22,34.6 L12.5,34.6 L9.6,31.7 L9.6,12.3 L9.6,12.3 Z M32.2,9.1 L25,1.9 L9.4,1.9 L2.2,9.2 L2.2,34.9 L9.4,42.2 L25,42.2 L32.2,35 L32.2,9.1 L32.2,9.1 Z" id="Shape" fill="#C3002F"></path>
                        <path d="M1.2,35.2 L1.2,8.6 L9,0.8 L25.4,0.8 L33.3,8.6 L33.2,35.3 L25.4,43.1 L9.1,43.1 L1.2,35.2 L1.2,35.2 Z M8.7,0 L0.4,8.3 L0.4,35.6 L8.6,43.9 L25.7,43.9 L33.9,35.6 L34,8.2 L25.8,0 L8.7,0 L8.7,0 Z" id="Shape" fill="#000000"></path>
                        <path d="M13.4,11.2 L21.2,11.2 L23,13 L23,30.9 L21.2,32.7 L13.3,32.7 L11.5,30.9 L11.5,13 L13.4,11.2 L13.4,11.2 Z M23.7,12.8 L21.4,10.5 L13,10.5 L10.7,12.8 L10.7,31.3 L12.9,33.5 L21.4,33.5 L23.6,31.3 L23.6,12.8 L23.7,12.8 Z" id="Shape" fill="#000000"></path>
                    </g>
                    <polygon id="XMLID_31_" fill="#000000" fill-rule="nonzero" points="0.3 76.3 0.3 77.1 262.2 77.1 262.2 76.3"></polygon>
                    <g id="Group" transform="translate(30.000000, 84.000000)" fill="#000000" fill-rule="nonzero">
                        <path d="M0.5,4.9 C0.5,2.3 2.4,0.5 4.9,0.5 C6.4,0.5 7.5,1.2 8.2,2.2 L7.3,2.7 C6.8,2 5.9,1.4 4.9,1.4 C3,1.4 1.6,2.8 1.6,4.9 C1.6,6.9 3,8.4 4.9,8.4 C5.9,8.4 6.8,7.9 7.3,7.1 L8.2,7.6 C7.5,8.6 6.4,9.3 4.9,9.3 C2.5,9.3 0.5,7.5 0.5,4.9 Z" id="Shape"></path>
                        <path d="M9.2,4.9 C9.2,2.4 10.9,0.5 13.5,0.5 C16,0.5 17.8,2.4 17.8,4.9 C17.8,7.4 16.1,9.3 13.5,9.3 C11,9.3 9.2,7.4 9.2,4.9 Z M16.7,4.9 C16.7,2.9 15.4,1.4 13.5,1.4 C11.6,1.4 10.3,2.9 10.3,4.9 C10.3,6.9 11.5,8.4 13.5,8.4 C15.4,8.4 16.7,6.9 16.7,4.9 Z" id="Shape"></path>
                        <polygon id="Shape" points="19.3 9.2 19.3 0.6 20.4 0.6 20.4 8.2 24.4 8.2 24.4 9.2"></polygon>
                        <polygon id="Shape" points="25.7 9.2 25.7 0.6 26.8 0.6 26.8 8.2 30.8 8.2 30.8 9.2"></polygon>
                        <polygon id="Shape" points="32.2 9.2 32.2 0.6 37.8 0.6 37.8 1.6 33.2 1.6 33.2 4.4 37.7 4.4 37.7 5.4 33.2 5.4 33.2 8.4 37.8 8.4 37.8 9.4 32.2 9.4"></polygon>
                        <path d="M39.2,4.9 C39.2,2.2 41.2,0.5 43.6,0.5 C45.1,0.5 46.2,1.2 46.9,2.1 L46,2.6 C45.5,1.9 44.5,1.4 43.5,1.4 C41.6,1.4 40.2,2.8 40.2,4.9 C40.2,6.9 41.6,8.4 43.5,8.4 C44.5,8.4 45.4,7.9 45.8,7.5 L45.8,5.8 L42.8,5.8 L42.8,4.8 L46.8,4.8 L46.8,7.9 C46,8.8 44.8,9.4 43.4,9.4 C41.1,9.3 39.2,7.5 39.2,4.9 Z" id="Shape"></path>
                        <polygon id="Shape" points="48.7 9.2 48.7 0.6 54.3 0.6 54.3 1.6 49.7 1.6 49.7 4.4 54.2 4.4 54.2 5.4 49.7 5.4 49.7 8.4 54.3 8.4 54.3 9.4 48.7 9.4"></polygon>
                        <path d="M59,4.9 C59,2.4 60.7,0.5 63.3,0.5 C65.8,0.5 67.6,2.4 67.6,4.9 C67.6,7.4 65.9,9.3 63.3,9.3 C60.8,9.3 59,7.4 59,4.9 Z M66.5,4.9 C66.5,2.9 65.2,1.4 63.3,1.4 C61.4,1.4 60.1,2.9 60.1,4.9 C60.1,6.9 61.3,8.4 63.3,8.4 C65.2,8.4 66.5,6.9 66.5,4.9 Z" id="Shape"></path>
                        <polygon id="Shape" points="69.3 9.2 69.3 0.6 74.9 0.6 74.9 1.6 70.3 1.6 70.3 4.4 74.8 4.4 74.8 5.4 70.3 5.4 70.3 9.3 69.3 9.3"></polygon>
                        <path d="M85.8,9.2 L85,7.3 L80.7,7.3 L79.9,9.2 L78.7,9.2 L82.2,0.6 L83.5,0.6 L87,9.2 L85.8,9.2 Z M82.9,1.7 L81.1,6.3 L84.7,6.3 L82.9,1.7 Z" id="Shape"></path>
                        <path d="M93.2,9.2 L91,5.8 L89.3,5.8 L89.3,9.2 L88.2,9.2 L88.2,0.6 L91.7,0.6 C93.3,0.6 94.4,1.6 94.4,3.2 C94.4,4.7 93.3,5.6 92.2,5.7 L94.5,9.2 L93.2,9.2 Z M93.2,3.1 C93.2,2.1 92.5,1.5 91.5,1.5 L89.2,1.5 L89.2,4.8 L91.5,4.8 C92.5,4.8 93.2,4.1 93.2,3.1 Z" id="Shape"></path>
                        <polygon id="Shape" points="98 9.2 98 1.6 95.3 1.6 95.3 0.6 101.8 0.6 101.8 1.6 99.1 1.6 99.1 9.2"></polygon>
                        <path d="M102.7,7.9 L103.3,7.1 C103.9,7.7 104.8,8.3 106,8.3 C107.5,8.3 108,7.5 108,6.8 C108,4.6 102.9,5.8 102.9,2.8 C102.9,1.4 104.2,0.4 105.9,0.4 C107.2,0.4 108.2,0.9 108.9,1.6 L108.3,2.4 C107.7,1.7 106.8,1.4 105.8,1.4 C104.8,1.4 104,2 104,2.8 C104,4.7 109.1,3.6 109.1,6.8 C109.1,8 108.2,9.3 105.9,9.3 C104.5,9.3 103.4,8.7 102.7,7.9 Z" id="Shape"></path>
                        <path d="M120.3,9.2 L119.5,7.3 L115.2,7.3 L114.4,9.2 L113.2,9.2 L116.7,0.6 L118,0.6 L121.5,9.2 L120.3,9.2 Z M117.4,1.7 L115.6,6.3 L119.2,6.3 L117.4,1.7 Z" id="Shape"></path>
                        <polygon id="Shape" points="128.7 9.2 123.7 2.3 123.7 9.2 122.6 9.2 122.6 0.6 123.7 0.6 128.7 7.3 128.7 0.6 129.8 0.6 129.8 9.2"></polygon>
                        <path d="M131.8,9.2 L131.8,0.6 L134.7,0.6 C137.4,0.6 139.1,2.5 139.1,4.9 C139.1,7.4 137.4,9.2 134.7,9.2 L131.8,9.2 Z M138,4.9 C138,3 136.8,1.5 134.7,1.5 L132.8,1.5 L132.8,8.2 L134.7,8.2 C136.8,8.2 138,6.7 138,4.9 Z" id="Shape"></path>
                        <path d="M143.6,7.9 L144.2,7.1 C144.8,7.7 145.7,8.3 146.9,8.3 C148.4,8.3 148.9,7.5 148.9,6.8 C148.9,4.6 143.8,5.8 143.8,2.8 C143.8,1.4 145.1,0.4 146.8,0.4 C148.1,0.4 149.1,0.9 149.8,1.6 L149.2,2.4 C148.6,1.7 147.7,1.4 146.7,1.4 C145.7,1.4 144.9,2 144.9,2.8 C144.9,4.7 150,3.6 150,6.8 C150,8 149.1,9.3 146.8,9.3 C145.4,9.3 144.3,8.7 143.6,7.9 Z" id="Shape"></path>
                        <path d="M151.3,4.9 C151.3,2.3 153.2,0.5 155.7,0.5 C157.2,0.5 158.3,1.2 159,2.2 L158.1,2.7 C157.6,2 156.7,1.4 155.7,1.4 C153.8,1.4 152.4,2.8 152.4,4.9 C152.4,6.9 153.8,8.4 155.7,8.4 C156.7,8.4 157.6,7.9 158.1,7.1 L159,7.6 C158.3,8.6 157.2,9.3 155.7,9.3 C153.3,9.3 151.3,7.5 151.3,4.9 Z" id="Shape"></path>
                        <polygon id="Shape" points="160.4 9.2 160.4 0.6 161.5 0.6 161.5 9.2"></polygon>
                        <polygon id="Shape" points="163.5 9.2 163.5 0.6 169.1 0.6 169.1 1.6 164.5 1.6 164.5 4.4 169 4.4 169 5.4 164.5 5.4 164.5 8.4 169.1 8.4 169.1 9.4 163.5 9.4"></polygon>
                        <polygon id="Shape" points="176.9 9.2 171.9 2.3 171.9 9.2 170.8 9.2 170.8 0.6 171.9 0.6 176.9 7.3 176.9 0.6 178 0.6 178 9.2"></polygon>
                        <path d="M179.6,4.9 C179.6,2.3 181.5,0.5 184,0.5 C185.5,0.5 186.6,1.2 187.3,2.2 L186.4,2.7 C185.9,2 185,1.4 184,1.4 C182.1,1.4 180.7,2.8 180.7,4.9 C180.7,6.9 182.1,8.4 184,8.4 C185,8.4 185.9,7.9 186.4,7.1 L187.3,7.6 C186.6,8.6 185.5,9.3 184,9.3 C181.6,9.3 179.6,7.5 179.6,4.9 Z" id="Shape"></path>
                        <polygon id="Shape" points="188.7 9.2 188.7 0.6 194.3 0.6 194.3 1.6 189.7 1.6 189.7 4.4 194.2 4.4 194.2 5.4 189.7 5.4 189.7 8.4 194.3 8.4 194.3 9.4 188.7 9.4"></polygon>
                        <path d="M195.5,7.9 L196.1,7.1 C196.7,7.7 197.6,8.3 198.8,8.3 C200.3,8.3 200.8,7.5 200.8,6.8 C200.8,4.6 195.7,5.8 195.7,2.8 C195.7,1.4 197,0.4 198.7,0.4 C200,0.4 201,0.9 201.7,1.6 L201.1,2.4 C200.5,1.7 199.6,1.4 198.6,1.4 C197.6,1.4 196.8,2 196.8,2.8 C196.8,4.7 201.9,3.6 201.9,6.8 C201.9,8 201,9.3 198.7,9.3 C197.3,9.3 196.2,8.7 195.5,7.9 Z" id="Shape"></path>
                    </g>
                </g>
            </g>
        </g>
    </g>
</svg>