<?xml version="1.0" encoding="UTF-8"?>
<svg width="386px" height="114px" viewBox="0 0 386 114" version="1.1" xmlns="http://www.w3.org/2000/svg" xmlns:xlink="http://www.w3.org/1999/xlink">
    <!-- Generator: Sketch 52.1 (67048) - http://www.bohemiancoding.com/sketch -->
    <title>OSU Logo/osu logo-vertical-black and red</title>
    <desc>Created with Sketch.</desc>
    <defs>
        <polygon id="path-1" points="0 114 385.673027 114 385.673027 0.473895349 0 0.473895349"></polygon>
    </defs>
    <g id="Logos" stroke="none" stroke-width="1" fill="none" fill-rule="evenodd">
        <g id="Ohio-State-Logos" transform="translate(-699.000000, -1040.000000)">
            <g id="OSU-Logo/osu-logo-vertical-black-and-red" transform="translate(699.000000, 1040.000000)">
                <g id="osu-logo-vertical-red">
                    <path d="M70.8192608,83.4831942 C67.4719378,83.4831942 65.752845,86.1655081 65.752845,91.7104151 C65.752845,97.2858105 67.4109206,99.99795 70.7582436,99.99795 C74.1068931,99.99795 75.8246595,97.315636 75.8246595,91.7707291 C75.8246595,86.1953337 74.1665838,83.4831942 70.8192608,83.4831942 Z M70.788089,102.19709 C64.5159206,102.19709 61.7721371,98.4609384 61.7721371,91.6799267 C61.7721371,84.9300663 64.545766,81.2833919 70.8192608,81.2833919 C77.0914292,81.2833919 79.8365392,85.019543 79.8365392,91.8012174 C79.8365392,98.5510779 77.0615838,102.19709 70.788089,102.19709 Z" id="Fill-4" fill="#000000"></path>
                    <polygon id="Fill-6" fill="#000000" points="91.2045708 101.836134 91.2045708 100.389262 93.4648595 100.027378 93.4648595 94.5122965 87.4347701 94.5122965 87.4347701 100.027378 89.6970485 100.389262 89.6970485 101.836134 81.463045 101.836134 81.463045 100.389262 83.8155227 100.027378 83.8155227 87.8220872 81.463045 87.4608663 81.463045 86.014657 89.6970485 86.014657 89.6970485 87.4608663 87.4347701 87.8220872 87.4347701 92.5842384 93.4648595 92.5842384 93.4648595 87.8220872 91.2045708 87.4608663 91.2045708 86.014657 99.4365845 86.014657 99.4365845 87.4608663 97.0841069 87.8220872 97.0841069 100.027378 99.4365845 100.389262 99.4365845 101.836134"></polygon>
                    <polygon id="Fill-8" fill="#000000" points="101.396563 101.836134 101.396563 100.389262 103.74904 100.027378 103.74904 87.8220872 101.396563 87.4608663 101.396563 86.014657 109.719439 86.014657 109.719439 87.4608663 107.366961 87.8220872 107.366961 100.027378 109.719439 100.389262 109.719439 101.836134"></polygon>
                    <path d="M118.675501,87.8223523 C116.141962,87.8223523 114.785656,89.6602709 114.785656,93.9100849 C114.785656,98.1897244 116.082271,100.057469 118.614484,100.057469 C121.148687,100.057469 122.535501,98.21955 122.535501,93.9703988 C122.535501,89.6907593 121.207714,87.8223523 118.675501,87.8223523 M118.645656,102.137306 C113.307315,102.137306 110.98601,99.1540849 110.98601,93.9100849 C110.98601,88.6660849 113.337161,85.7425151 118.675501,85.7425151 C124.012515,85.7425151 126.335147,88.7270616 126.335147,93.9703988 C126.335147,99.213736 123.982669,102.137306 118.645656,102.137306" id="Fill-10" fill="#000000"></path>
                    <path d="M142.82902,102.197288 C139.331144,102.197288 136.527006,100.992335 136.527006,100.992335 L136.527006,96.6828698 L138.246099,96.6828698 L138.637405,99.4553233 C138.637405,99.4553233 139.93402,99.9073465 142.226807,99.9073465 C144.577958,99.9073465 146.68902,99.1232651 146.68902,96.5622419 C146.68902,94.2418116 145.06079,93.9097535 143.069773,93.2469628 C139.904175,92.1918 136.556852,91.2884163 136.556852,86.9484628 C136.556852,83.4230791 138.758776,81.2829279 143.371542,81.2829279 C145.483267,81.2829279 147.683865,81.7654395 149.402958,82.4282302 L149.402958,86.466614 L147.683865,86.466614 L147.292559,83.8744395 C147.292559,83.8744395 145.483267,83.483393 143.733003,83.483393 C141.984065,83.483393 140.174773,84.0858698 140.174773,86.4063 C140.174773,91.4388698 150.308267,88.1242535 150.308267,96.1705326 C150.308267,99.9676605 147.835745,102.197288 142.82902,102.197288" id="Fill-12" fill="#000000"></path>
                    <polygon id="Fill-14" fill="#000000" points="164.601609 90.3842372 164.240148 87.9431791 160.741609 87.9431791 160.741609 100.027842 163.094086 100.389726 163.094086 101.835935 154.77121 101.835935 154.77121 100.389726 157.123688 100.027842 157.123688 87.9431791 153.624485 87.9431791 153.263024 90.3842372 151.72433 90.3842372 151.72433 86.0144581 166.138976 86.0144581 166.138976 90.3842372"></polygon>
                    <path d="M173.947716,89.057993 L171.656256,95.3266674 L176.240503,95.3266674 L173.947716,89.057993 Z M175.818026,101.835935 L175.818026,100.389726 L178.078978,100.027842 L176.964751,97.1652488 L170.933335,97.1652488 L169.817119,100.027842 L172.078734,100.389726 L172.078734,101.835935 L165.17318,101.835935 L165.17318,100.389726 L167.434796,100.027842 L172.862009,86.0144581 L176.33004,86.0144581 L181.758579,100.027842 L184.020857,100.389726 L184.020857,101.835935 L175.818026,101.835935 Z" id="Fill-16" fill="#000000"></path>
                    <polygon id="Fill-18" fill="#000000" points="195.930151 90.3842372 195.567364 87.9431791 192.070151 87.9431791 192.070151 100.027842 194.422629 100.389726 194.422629 101.835935 186.098426 101.835935 186.098426 100.389726 188.450904 100.027842 188.450904 87.9431791 184.951701 87.9431791 184.590241 90.3842372 183.052873 90.3842372 183.052873 86.0144581 197.467519 86.0144581 197.467519 90.3842372"></polygon>
                    <polygon id="Fill-20" fill="#000000" points="212.51482 101.836134 198.853604 101.836134 198.853604 100.389262 201.206081 100.027378 201.206081 87.8220872 198.853604 87.4608663 198.853604 86.014657 212.51482 86.014657 212.51482 90.2034942 210.977453 90.2034942 210.614666 87.9433779 204.825329 87.9433779 204.825329 92.6445523 208.44325 92.6445523 208.806037 90.6250291 210.162343 90.6250291 210.162343 96.4715058 208.806037 96.4715058 208.44325 94.4519826 204.825329 94.4519826 204.825329 99.9074128 210.614666 99.9074128 210.977453 97.6472965 212.51482 97.6472965"></polygon>
                    <path d="M240.046635,83.5433756 L240.046635,93.8497709 C240.046635,97.3155035 239.835728,98.8226895 238.207498,100.449841 C237.030927,101.624969 235.100927,102.19762 232.237099,102.19762 C229.401126,102.19762 227.291391,101.414201 225.963604,100.087957 C224.245838,98.3700035 224.425573,95.8089802 224.425573,93.5786895 L224.425573,83.5433756 L221.982896,83.1814919 L221.982896,81.645143 L230.667896,81.645143 L230.667896,83.1814919 L228.225219,83.5433756 L228.225219,95.3562942 C228.225219,98.6715733 230.064357,99.9978174 232.899003,99.9978174 C234.407852,99.9978174 235.643449,99.6962477 236.457233,98.8226895 C237.18148,98.0690965 237.573449,96.8939686 237.573449,95.3562942 L237.573449,83.5433756 L235.130773,83.1814919 L235.130773,81.645143 L242.488649,81.645143 L242.488649,83.1814919 L240.046635,83.5433756 Z" id="Fill-22" fill="#000000"></path>
                    <polygon id="Fill-24" fill="#000000" points="259.074313 87.8223523 259.074313 101.836399 256.24033 101.836399 248.188052 90.5351547 248.188052 100.027643 250.540529 100.389527 250.540529 101.836399 243.453251 101.836399 243.453251 100.389527 245.805729 100.027643 245.805729 87.8223523 243.453251 87.4604686 243.453251 86.0142593 248.973316 86.0142593 256.69199 96.8031663 256.69199 87.8223523 254.340838 87.4604686 254.340838 86.0142593 261.42679 86.0142593 261.42679 87.4604686"></polygon>
                    <polygon id="Fill-26" fill="#000000" points="263.295972 101.836134 263.295972 100.389262 265.64845 100.027378 265.64845 87.8220872 263.295972 87.4608663 263.295972 86.014657 271.618848 86.014657 271.618848 87.4608663 269.266371 87.8220872 269.266371 100.027378 271.618848 100.389262 271.618848 101.836134"></polygon>
                    <polygon id="Fill-28" fill="#000000" points="289.290154 87.8223523 284.012831 101.836399 280.514291 101.836399 275.236968 87.8223523 272.976016 87.4604686 272.976016 86.0142593 281.177522 86.0142593 281.177522 87.4604686 278.915907 87.8223523 282.927123 98.6715733 286.906504 87.8223523 284.646216 87.4604686 284.646216 86.0142593 291.551769 86.0142593 291.551769 87.4604686"></polygon>
                    <polygon id="Fill-30" fill="#000000" points="306.44865 101.836134 292.787433 101.836134 292.787433 100.389262 295.138585 100.027378 295.138585 87.8220872 292.787433 87.4608663 292.787433 86.014657 306.44865 86.014657 306.44865 90.2034942 304.909956 90.2034942 304.548495 87.9433779 298.757832 87.9433779 298.757832 92.6445523 302.375753 92.6445523 302.73854 90.6250291 304.096172 90.6250291 304.096172 96.4715058 302.73854 96.4715058 302.375753 94.4519826 298.757832 94.4519826 298.757832 99.9074128 304.548495 99.9074128 304.909956 97.6472965 306.44865 97.6472965"></polygon>
                    <path d="M318.630332,88.4249616 C318.026793,87.7926593 316.730178,87.8529733 315.916394,87.8529733 L314.860532,87.8529733 L314.860532,92.9153686 L315.493916,92.9153686 C316.518607,92.9153686 317.937257,93.0359965 318.691349,92.192264 C319.172855,91.6501012 319.293563,91.017136 319.293563,90.323857 C319.293563,89.6305779 319.143009,88.9677872 318.630332,88.4249616 Z M320.31958,101.835869 L318.84124,98.2190198 C317.845068,95.8091128 317.242855,94.693636 315.133119,94.693636 L314.860532,94.693636 L314.860532,100.027776 L317.12281,100.389659 L317.12281,101.835869 L308.888807,101.835869 L308.888807,100.389659 L311.241284,100.027776 L311.241284,87.8224849 L308.888807,87.4606012 L308.888807,86.0143919 L316.881394,86.0143919 C318.509624,86.0143919 320.409116,86.1045314 321.64604,87.2504965 C322.45916,88.0034267 322.91281,89.0274384 322.91281,90.2038919 C322.91281,92.0418105 321.705731,93.6987872 320.047655,94.2117872 C321.374116,95.2053105 322.520178,98.4609384 323.183408,100.027776 L325.446349,100.389659 L325.446349,101.835869 L320.31958,101.835869 Z" id="Fill-32" fill="#000000"></path>
                    <path d="M332.591859,102.137107 C329.637169,102.137107 327.163983,101.142921 327.163983,101.142921 L327.163983,97.0442233 L328.792877,97.0442233 L329.183519,99.6363977 C329.183519,99.6363977 330.330244,99.967793 332.109691,99.967793 C334.040354,99.967793 335.516705,99.3354907 335.516705,97.6168744 C335.516705,96.4112581 334.853475,95.9897233 333.858629,95.6589907 C330.933784,94.6634791 327.193829,94.2419442 327.193829,90.2943628 C327.193829,87.4609326 329.153674,85.7429791 333.044182,85.7429791 C334.823629,85.7429791 336.66343,86.1048628 338.261815,86.677514 L338.261815,90.594607 L336.633585,90.594607 L336.240952,88.1237233 C336.240952,88.1237233 334.914492,87.8221535 333.436152,87.8221535 C331.958475,87.8221535 330.661859,88.3351535 330.661859,89.8715023 C330.661859,93.3982116 339.015908,91.0479558 339.015908,97.3159674 C339.015908,100.389328 336.783475,102.137107 332.591859,102.137107" id="Fill-34" fill="#000000"></path>
                    <polygon id="Fill-36" fill="#000000" points="341.125776 101.836134 341.125776 100.389262 343.478253 100.027378 343.478253 87.8220872 341.125776 87.4608663 341.125776 86.014657 349.449978 86.014657 349.449978 87.4608663 347.097501 87.8220872 347.097501 100.027378 349.449978 100.389262 349.449978 101.836134"></polygon>
                    <polygon id="Fill-38" fill="#000000" points="364.044758 90.3842372 363.681971 87.9431791 360.184758 87.9431791 360.184758 100.027842 362.537235 100.389726 362.537235 101.835935 354.213033 101.835935 354.213033 100.389726 356.56551 100.027842 356.56551 87.9431791 353.066308 87.9431791 352.704847 90.3842372 351.167479 90.3842372 351.167479 86.0144581 365.582125 86.0144581 365.582125 90.3842372"></polygon>
                    <polygon id="Fill-40" fill="#000000" points="382.227878 87.8223523 377.613785 94.9652477 377.613785 100.027643 379.966263 100.389527 379.966263 101.836399 371.643387 101.836399 371.643387 100.389527 373.995864 100.027643 373.995864 94.9652477 369.320754 87.8223523 367.059139 87.4604686 367.059139 86.0142593 375.443033 86.0142593 375.443033 87.4604686 373.180754 87.8223523 376.437878 92.9450616 379.664493 87.8223523 377.493077 87.4604686 377.493077 86.0142593 384.489493 86.0142593 384.489493 87.4604686"></polygon>
                    <path d="M214.345137,13.8649186 L203.724831,3.27948837 L180.729975,3.27948837 L170.055285,13.9557209 L170.055285,51.7414186 L180.729975,62.4163256 L203.724831,62.4163256 L214.345137,51.8593953 L214.345137,13.8649186 Z M180.980013,18.5349419 L185.277082,14.2413837 L199.200937,14.2413837 L203.497343,18.5349419 L203.497343,47.1489419 L199.200937,51.4418372 L185.277082,51.4418372 L180.980013,47.1489419 L180.980013,18.5349419 Z" id="Fill-42" fill="#BB0000"></path>
                    <path d="M201.780041,19.3025198 L198.368385,15.8931244 L186.059495,15.8931244 L182.695591,19.2547988 L182.695591,46.4577174 L185.985876,49.7458221 L198.516948,49.7458221 L201.780041,46.4848919 L201.780041,19.3025198 Z M186.536357,16.9920314 L197.956519,16.9920314 L200.679742,19.7127872 L200.679742,46.0269035 L198.057993,48.6475779 L186.431567,48.6475779 L183.849611,46.0673337 L183.849611,19.6763337 L186.536357,16.9920314 Z" id="Fill-47" fill="#000000"></path>
                    <path d="M179.732212,0.47382907 L167.569232,12.6241081 L167.569232,52.8548407 L179.648645,65.0780267 L204.804968,65.0780267 L216.88239,52.9270849 L216.964631,12.6241081 L204.888535,0.47382907 L179.732212,0.47382907 Z M168.661573,52.3570849 L168.661573,13.1125849 L180.221012,1.57406163 L204.385806,1.57207326 L215.991672,13.1125849 L215.78806,52.4386081 L204.303566,63.9154919 L180.221012,63.9141663 L168.661573,52.3570849 Z" id="Fill-44" fill="#000000"></path>
                    <mask id="mask-2" fill="white">
                        <use xlink:href="#path-1"></use>
                    </mask>
                    <g id="Clip-50"></g>
                    <polygon id="Fill-49" fill="#000000" mask="url(#mask-2)" points="0 114 385.673027 114 385.673027 112.85536 0 112.85536"></polygon>
                    <polygon id="Fill-3" fill="#000000" mask="url(#mask-2)" points="51.5804107 101.836134 37.9191942 101.836134 37.9191942 100.389262 40.2716718 100.027378 40.2716718 87.8220872 37.9191942 87.4608663 37.9191942 86.014657 51.5804107 86.014657 51.5804107 90.2034942 50.043043 90.2034942 49.680256 87.9433779 43.8909192 87.9433779 43.8909192 92.6445523 47.5088402 92.6445523 47.8716271 90.6250291 49.227933 90.6250291 49.227933 96.4715058 47.8716271 96.4715058 47.5088402 94.4519826 43.8909192 94.4519826 43.8909192 99.9074128 49.680256 99.9074128 50.043043 97.6472965 51.5804107 97.6472965"></polygon>
                    <polygon id="Fill-1" fill="#000000" mask="url(#mask-2)" points="0.044171134 81.6452093 0.044171134 86.2555814 1.67372784 86.2555814 2.03452509 83.7535465 6.61810928 83.7535465 6.61810928 99.9375698 4.17675876 100.298791 4.17675876 101.835802 12.8604323 101.835802 12.8604323 100.298791 10.4184186 99.9375698 10.4184186 83.7535465 15.0013395 83.7535465 15.3634632 86.2555814 16.9930199 86.2555814 16.9930199 81.6452093"></polygon>
                    <polygon id="Fill-2" fill="#000000" mask="url(#mask-2)" points="27.9385739 101.836134 27.9385739 100.389262 30.200189 100.027378 30.200189 94.5122965 24.1687732 94.5122965 24.1687732 100.027378 26.4310515 100.389262 26.4310515 101.836134 18.1983746 101.836134 18.1983746 100.389262 20.5508522 100.027378 20.5508522 87.8220872 18.1983746 87.4608663 18.1983746 86.014657 26.4310515 86.014657 26.4310515 87.4608663 24.1687732 87.8220872 24.1687732 92.5842384 30.200189 92.5842384 30.200189 87.8220872 27.9385739 87.4608663 27.9385739 86.014657 36.1705876 86.014657 36.1705876 87.4608663 33.8194364 87.8220872 33.8194364 100.027378 36.1705876 100.389262 36.1705876 101.836134"></polygon>
                </g>
            </g>
        </g>
    </g>
</svg>