<?xml version="1.0" encoding="UTF-8"?>
<svg width="392px" height="56px" viewBox="0 0 392 56" version="1.1" xmlns="http://www.w3.org/2000/svg" xmlns:xlink="http://www.w3.org/1999/xlink">
    <!-- Generator: Sketch 52.1 (67048) - http://www.bohemiancoding.com/sketch -->
    <title>OSU Logo/osu logo-horiz-black and red Copy</title>
    <desc>Created with Sketch.</desc>
    <g id="Logos" stroke="none" stroke-width="1" fill="none" fill-rule="evenodd">
        <g transform="translate(-67.000000, -425.000000)" id="OSU-Logo/osu-logo-horiz-black-and-red">
            <g transform="translate(67.000000, 425.000000)">
                <g id="Group">
                    <polygon id="Fill-1" fill="#000000" points="57.6231884 41.6 392 41.6 392 40.8 57.6231884 40.8"></polygon>
                    <path d="M40.5797101,11.4203728 L31.4331663,2.4 L11.6275413,2.4 L2.43478261,11.4971083 L2.43478261,43.7017632 L11.6275413,52.8 L31.4331663,52.8 L40.5797101,43.8016322 L40.5797101,11.4203728 Z M11.8432105,15.4015919 L15.5443913,11.7414207 L27.5368562,11.7414207 L31.2368959,15.4015919 L31.2368959,39.7865592 L27.5368562,43.4467305 L15.5443913,43.4467305 L11.8432105,39.7865592 L11.8432105,15.4015919 Z" id="Fill-2" fill="#BB0000"></path>
                    <path d="M10.5912096,0 L0,10.3821366 L0,44.7550751 L10.5196669,55.2 L32.4290527,55.2 L43.0144928,44.8042875 L43.0144928,10.3776113 L32.5005954,0 L10.5912096,0 Z M11.0193121,54.2055685 L0.95140299,44.3308295 L0.95140299,10.7995942 L11.0193121,0.939562433 L32.0638386,0.938431111 L41.9638531,10.6717549 L41.9938549,44.4015371 L31.9940267,54.2078311 L11.0193121,54.2055685 Z" id="Fill-3" fill="#000000"></path>
                    <path d="M29.2173913,15.7005573 L26.3159829,12.8 L15.8463444,12.8 L12.9855072,15.6588794 L12.9855072,38.8030742 L15.7837971,41.6 L26.4427681,41.6 L29.2173913,38.8250396 L29.2173913,15.7005573 Z M16.25093,13.7338105 L25.9649288,13.7338105 L28.2808714,16.0486242 L28.2808714,38.4352948 L26.0511427,40.6639366 L16.1624621,40.6639366 L13.9671063,38.4690877 L13.9671063,16.0182106 L16.25093,13.7338105 Z" id="Fill-4" fill="#000000"></path>
                    <polygon id="Fill-5" fill="#000000" points="70.0162452 18.2364549 69.7046799 16.1552733 65.7538035 16.1552733 65.7538035 29.6200886 67.8592988 29.9206302 67.8592988 31.2 60.3731569 31.2 60.3731569 29.9206302 62.4780805 29.6200886 62.4780805 16.1552733 58.5272041 16.1552733 58.2156388 18.2364549 56.8115942 18.2364549 56.8115942 14.4 71.4202899 14.4 71.4202899 18.2364549"></polygon>
                    <polygon id="Fill-6" fill="#000000" points="81.4003319 31.2 81.4003319 29.9563338 83.3407426 29.6452748 83.3407426 24.9047587 78.1659348 24.9047587 78.1659348 29.6452748 80.1069145 29.9563338 80.1069145 31.2 73.0434783 31.2 73.0434783 29.9563338 75.0618468 29.6452748 75.0618468 19.1541555 73.0434783 18.8436662 73.0434783 17.6 80.1069145 17.6 80.1069145 18.8436662 78.1659348 19.1541555 78.1659348 23.2474866 83.3407426 23.2474866 83.3407426 19.1541555 81.4003319 18.8436662 81.4003319 17.6 88.4637681 17.6 88.4637681 18.8436662 86.4459686 19.1541555 86.4459686 29.6452748 88.4637681 29.9563338 88.4637681 31.2"></polygon>
                    <polygon id="Fill-7" fill="#000000" points="102.26087 31.2 90.0869565 31.2 90.0869565 29.9563338 92.1834205 29.6452748 92.1834205 19.1541555 90.0869565 18.8436662 90.0869565 17.6 102.26087 17.6 102.26087 21.2011059 100.890809 21.2011059 100.568095 19.2584115 95.4082042 19.2584115 95.4082042 23.2993298 98.6329879 23.2993298 98.9557027 21.5628686 100.164997 21.5628686 100.164997 26.588807 98.9557027 26.588807 98.6329879 24.8529155 95.4082042 24.8529155 95.4082042 29.5415885 100.568095 29.5415885 100.890809 27.5988941 102.26087 27.5988941"></polygon>
                    <g id="Group-46" transform="translate(110.376812, 13.600000)" fill="#000000">
                        <path d="M7.95717454,2.21993212 C5.05540862,2.21993212 3.56514168,4.47644121 3.56514168,9.14112 C3.56514168,13.8314473 5.0030883,16.1130473 7.90485421,16.1130473 C10.8071951,16.1130473 12.2968871,13.8565382 12.2968871,9.19185939 C12.2968871,4.50153212 10.8595154,2.21993212 7.95717454,2.21993212 M7.9307269,17.9636412 C2.49286242,17.9636412 0.114299795,14.8200291 0.114299795,9.11602909 C0.114299795,3.43712 2.51931006,0.369338182 7.95717454,0.369338182 C13.395039,0.369338182 15.7741766,3.5129503 15.7741766,9.21750788 C15.7741766,14.8958594 13.3685914,17.9636412 7.9307269,17.9636412" id="Fill-8"></path>
                        <polygon id="Fill-10" points="25.6289692 17.6597624 25.6289692 16.4425745 27.5889692 16.1381382 27.5889692 11.4985503 22.360961 11.4985503 22.360961 16.1381382 24.3221109 16.4425745 24.3221109 17.6597624 17.1846982 17.6597624 17.1846982 16.4425745 19.2240411 16.1381382 19.2240411 5.87038061 17.1846982 5.56650182 17.1846982 4.34931394 24.3221109 4.34931394 24.3221109 5.56650182 22.360961 5.87038061 22.360961 9.87656242 27.5889692 9.87656242 27.5889692 5.87038061 25.6289692 5.56650182 25.6289692 4.34931394 32.765232 4.34931394 32.765232 5.56650182 30.7258891 5.87038061 30.7258891 16.1381382 32.765232 16.4425745 32.765232 17.6597624"></polygon>
                        <polygon id="Fill-12" points="34.4643203 17.6597624 34.4643203 16.4425745 36.5036632 16.1381382 36.5036632 5.87038061 34.4643203 5.56650182 34.4643203 4.34931394 41.6799261 4.34931394 41.6799261 5.56650182 39.6405832 5.87038061 39.6405832 16.1381382 41.6799261 16.4425745 41.6799261 17.6597624"></polygon>
                        <path d="M49.4433429,5.87060364 C47.247614,5.87060364 46.0718439,7.41676121 46.0718439,10.991937 C46.0718439,14.5916461 47.1952936,16.1634521 49.3910226,16.1634521 C51.5873265,16.1634521 52.7895441,14.6172945 52.7895441,11.0426764 C52.7895441,7.4424097 51.6390719,5.87060364 49.4433429,5.87060364 M49.4180452,17.9131248 C44.7897084,17.9131248 42.7773881,15.4029188 42.7773881,10.991937 C42.7773881,6.58039758 44.8161561,4.12093091 49.4433429,4.12093091 C54.0705298,4.12093091 56.084,6.63169455 56.084,11.0426764 C56.084,15.4536582 54.0446571,17.9131248 49.4180452,17.9131248" id="Fill-14"></path>
                        <path d="M70.3823409,17.9635855 C67.3500616,17.9635855 64.9186037,16.9499127 64.9186037,16.9499127 L64.9186037,13.3245552 L66.4088706,13.3245552 L66.7486653,15.6568945 C66.7486653,15.6568945 67.872115,16.0366036 69.8597125,16.0366036 C71.8984805,16.0366036 73.7285421,15.3775491 73.7285421,13.2230764 C73.7285421,11.2710036 72.3164682,10.9916582 70.5910472,10.4340824 C67.8462423,9.54642182 64.9444764,8.78644606 64.9444764,5.13544 C64.9444764,2.16913697 66.853306,0.369282424 70.8526489,0.369282424 C72.6827105,0.369282424 74.5909651,0.775197576 76.081232,1.33277333 L76.081232,4.73008242 L74.5909651,4.73008242 L74.2517454,2.54940364 C74.2517454,2.54940364 72.6827105,2.21987636 71.1659959,2.21987636 C69.6504312,2.21987636 68.0813963,2.7272703 68.0813963,4.67934303 C68.0813963,8.91301576 76.865462,6.12402182 76.865462,12.8935491 C76.865462,16.0879006 74.7220534,17.9635855 70.3823409,17.9635855" id="Fill-16"></path>
                        <polygon id="Fill-18" points="89.2562957 8.02552242 88.9429487 5.97252848 85.9100945 5.97252848 85.9100945 16.1382497 87.9494374 16.4426861 87.9494374 17.6598739 80.7344066 17.6598739 80.7344066 16.4426861 82.7737495 16.1382497 82.7737495 5.97252848 79.7403203 5.97252848 79.4269733 8.02552242 78.0930924 8.02552242 78.0930924 4.34942545 90.5890267 4.34942545 90.5890267 8.02552242"></polygon>
                        <path d="M97.3588747,6.91009212 L95.3718522,12.1836436 L99.3458973,12.1836436 L97.3588747,6.91009212 Z M98.979655,17.6595952 L98.979655,16.4429648 L100.94023,16.1379709 L99.9737413,13.7298012 L94.7451581,13.7298012 L93.7775195,16.1379709 L95.7380945,16.4429648 L95.7380945,17.6595952 L89.751729,17.6595952 L89.751729,16.4429648 L91.7123039,16.1379709 L96.4176838,4.34970424 L99.4240903,4.34970424 L104.12947,16.1379709 L106.09062,16.4429648 L106.09062,17.6595952 L98.979655,17.6595952 Z" id="Fill-20"></path>
                        <polygon id="Fill-22" points="116.414743 8.02552242 116.100246 5.97252848 113.068542 5.97252848 113.068542 16.1382497 115.107885 16.4426861 115.107885 17.6598739 107.891704 17.6598739 107.891704 16.4426861 109.931622 16.1382497 109.931622 5.97252848 106.898193 5.97252848 106.584846 8.02552242 105.25154 8.02552242 105.25154 4.34942545 117.747474 4.34942545 117.747474 8.02552242"></polygon>
                        <polygon id="Fill-24" points="130.791795 17.6597624 118.949577 17.6597624 118.949577 16.4425745 120.98892 16.1381382 120.98892 5.87038061 118.949577 5.56650182 118.949577 4.34931394 130.791795 4.34931394 130.791795 7.8737503 129.459064 7.8737503 129.145142 5.97241697 124.12584 5.97241697 124.12584 9.92730182 127.26276 9.92730182 127.576682 8.22781091 128.753027 8.22781091 128.753027 13.1467442 127.576682 13.1467442 127.26276 11.4478109 124.12584 11.4478109 124.12584 16.0366594 129.145142 16.0366594 129.459064 14.1353261 130.791795 14.1353261"></polygon>
                        <path d="M154.659466,2.27061576 L154.659466,10.9409188 C154.659466,13.8564824 154.476057,15.1244097 153.065133,16.4932582 C152.0446,17.48184 150.372074,17.9635855 147.888871,17.9635855 C145.430965,17.9635855 143.601478,17.3045309 142.450431,16.1888218 C140.961314,14.744143 141.117125,12.5891127 141.117125,10.7128703 L141.117125,2.27061576 L139.000164,1.96617939 L139.000164,0.673718788 L146.528542,0.673718788 L146.528542,1.96617939 L144.411006,2.27061576 L144.411006,12.2088461 C144.411006,14.99784 146.005914,16.1129915 148.463244,16.1129915 C149.770678,16.1129915 150.841807,15.8598521 151.547844,15.1244097 C152.175113,14.4910036 152.515483,13.5018642 152.515483,12.2088461 L152.515483,2.27061576 L150.397947,1.96617939 L150.397947,0.673718788 L156.776427,0.673718788 L156.776427,1.96617939 L154.659466,2.27061576 Z" id="Fill-26"></path>
                        <polygon id="Fill-28" points="171.154456 5.87060364 171.154456 17.6599855 168.697125 17.6599855 161.716674 8.15276121 161.716674 16.1383612 163.756016 16.4427976 163.756016 17.6599855 157.612115 17.6599855 157.612115 16.4427976 159.652033 16.1383612 159.652033 5.87060364 157.612115 5.56616727 157.612115 4.34953697 162.397413 4.34953697 169.088665 13.4257552 169.088665 5.87060364 167.050472 5.56616727 167.050472 4.34953697 173.193799 4.34953697 173.193799 5.56616727"></polygon>
                        <polygon id="Fill-30" points="174.813602 17.6597624 174.813602 16.4425745 176.852945 16.1381382 176.852945 5.87038061 174.813602 5.56650182 174.813602 4.34931394 182.029207 4.34931394 182.029207 5.56650182 179.989864 5.87038061 179.989864 16.1381382 182.029207 16.4425745 182.029207 17.6597624"></polygon>
                        <polygon id="Fill-32" points="197.347737 5.87060364 192.772871 17.6599855 189.740016 17.6599855 185.165725 5.87060364 183.20515 5.56616727 183.20515 4.34953697 190.31554 4.34953697 190.31554 5.56616727 188.35439 5.87060364 191.83168 14.9975612 195.281947 5.87060364 193.321947 5.56616727 193.321947 4.34953697 199.308312 4.34953697 199.308312 5.56616727"></polygon>
                        <polygon id="Fill-34" points="212.222292 17.6597624 200.379499 17.6597624 200.379499 16.4425745 202.418267 16.1381382 202.418267 5.87038061 200.379499 5.56650182 200.379499 4.34931394 212.222292 4.34931394 212.222292 7.8737503 210.888986 7.8737503 210.575639 5.97241697 205.555187 5.97241697 205.555187 9.92730182 208.692107 9.92730182 209.006029 8.22781091 210.182949 8.22781091 210.182949 13.1467442 209.006029 13.1467442 208.692107 11.4478109 205.555187 11.4478109 205.555187 16.0366594 210.575639 16.0366594 210.888986 14.1353261 212.222292 14.1353261"></polygon>
                        <path d="M222.783006,6.37755152 C222.259803,5.84506667 221.135778,5.89636364 220.429741,5.89636364 L219.514423,5.89636364 L219.514423,10.1551273 L220.064074,10.1551273 C220.951795,10.1551273 222.18161,10.2566061 222.835326,9.54681212 C223.252739,9.09071515 223.35738,8.5582303 223.35738,7.97500606 C223.35738,7.39178182 223.226867,6.83420606 222.783006,6.37755152 Z M224.246825,17.6595394 L222.965265,14.6168485 C222.102267,12.5889455 221.579639,11.651103 219.750727,11.651103 L219.514423,11.651103 L219.514423,16.1379152 L221.475573,16.4429091 L221.475573,17.6595394 L214.33816,17.6595394 L214.33816,16.4429091 L216.377503,16.1379152 L216.377503,5.87071515 L214.33816,5.56627879 L214.33816,4.34964848 L221.266292,4.34964848 C222.677791,4.34964848 224.325018,4.42547879 225.396723,5.38952727 C226.102185,6.02293333 226.494875,6.88438788 226.494875,7.87352727 C226.494875,9.42024242 225.449043,10.8141818 224.011097,11.2457455 C225.161569,12.0815515 226.15508,14.8198061 226.730029,16.1379152 L228.691179,16.4429091 L228.691179,17.6595394 L224.246825,17.6595394 Z" id="Fill-36"></path>
                        <path d="M234.886136,17.9129576 C232.324164,17.9129576 230.180181,17.0765939 230.180181,17.0765939 L230.180181,13.6285455 L231.592255,13.6285455 L231.931474,15.8086667 C231.931474,15.8086667 232.924986,16.0880121 234.467573,16.0880121 C236.141248,16.0880121 237.421659,15.5555273 237.421659,14.1097333 C237.421659,13.0960606 236.84671,12.7408848 235.983713,12.4626545 C233.448189,11.6257333 230.206628,11.2705576 230.206628,7.94963636 C230.206628,5.566 231.905602,4.12132121 235.278251,4.12132121 C236.820263,4.12132121 238.41517,4.42575758 239.800797,4.90750303 L239.800797,8.20277576 L238.389298,8.20277576 L238.049503,6.12413333 C238.049503,6.12413333 236.899031,5.87043636 235.61747,5.87043636 C234.33706,5.87043636 233.21246,6.30144242 233.21246,7.59446061 C233.21246,10.5607636 240.454513,8.5836 240.454513,13.8565939 C240.454513,16.4426303 238.519236,17.9129576 234.886136,17.9129576" id="Fill-38"></path>
                        <polygon id="Fill-40" points="242.284115 17.6597624 242.284115 16.4425745 244.323458 16.1381382 244.323458 5.87038061 242.284115 5.56650182 242.284115 4.34931394 249.499721 4.34931394 249.499721 5.56650182 247.460378 5.87038061 247.460378 16.1381382 249.499721 16.4425745 249.499721 17.6597624"></polygon>
                        <polygon id="Fill-42" points="262.151869 8.02552242 261.837947 5.97252848 258.805667 5.97252848 258.805667 16.1382497 260.84501 16.4426861 260.84501 17.6598739 253.629405 17.6598739 253.629405 16.4426861 255.668172 16.1382497 255.668172 5.97252848 252.635318 5.97252848 252.321396 8.02552242 250.988665 8.02552242 250.988665 4.34942545 263.4846 4.34942545 263.4846 8.02552242"></polygon>
                        <polygon id="Fill-44" points="277.914661 5.87060364 273.914743 11.8795976 273.914743 16.1383612 275.954661 16.4427976 275.954661 17.6599855 268.739055 17.6599855 268.739055 16.4427976 270.778398 16.1383612 270.778398 11.8795976 266.72616 5.87060364 264.765585 5.56616727 264.765585 4.34953697 272.032936 4.34953697 272.032936 5.56616727 270.071786 5.87060364 272.895934 10.1801067 275.69306 5.87060364 273.810678 5.56616727 273.810678 4.34953697 279.875236 4.34953697 279.875236 5.56616727"></polygon>
                    </g>
                </g>
            </g>
        </g>
    </g>
</svg>