<?xml version="1.0" encoding="UTF-8" standalone="no"?>
<svg width="511px" height="51px" viewBox="0 0 511 51" version="1.1" xmlns="http://www.w3.org/2000/svg" xmlns:xlink="http://www.w3.org/1999/xlink">
    <!-- Generator: Sketch 47.1 (45422) - http://www.bohemiancoding.com/sketch -->
    <title>Wordmark</title>
    <desc>Created with Sketch.</desc>
    <defs></defs>
    <g id="Landing-Page" stroke="none" stroke-width="1" fill="none" fill-rule="evenodd">
        <g id="Desktop-HD---Landing-Page" transform="translate(-16.000000, -56.000000)" fill="#4A4A4A">
            <g id="Header">
                <g id="Wordmark" transform="translate(16.000000, 56.000000)">
                    <path d="M26.7999994,50.1199994 L21.4799995,50.1199994 L19.5199995,44.9999995 L7.27999983,44.9999995 L5.31999987,50.1199994 L0,50.1199994 L10.4799997,23.44 L16.3199996,23.44 L26.7999994,50.1199994 Z M18.1999996,40.8799996 L13.3999997,28.1599999 L8.59999979,40.8799996 L18.1999996,40.8799996 Z M39.6399991,50.1199994 L29.7199993,50.1199994 L29.7199993,23.44 L39.6399991,23.44 C47.9599989,23.44 53.5999987,28.9599999 53.5999987,36.7999997 C53.5999987,44.6399995 47.9599989,50.1199994 39.6399991,50.1199994 Z M39.6399991,45.9999995 C45.4399989,45.9999995 48.7999988,41.8399995 48.7999988,36.7999997 C48.7999988,31.6399998 45.5999989,27.5599999 39.6399991,27.5599999 L34.3999992,27.5599999 L34.3999992,45.9999995 L39.6399991,45.9999995 Z M85.8399979,50.1199994 L85.8399979,23.44 L79.2399981,23.44 L71.9599983,40.9999996 L64.7199985,23.44 L58.1199986,23.44 L58.1199986,50.1199994 L62.7999985,50.1199994 L62.7999985,30.3199998 L70.9599983,50.1199994 L72.9599983,50.1199994 L81.1599981,30.3199998 L81.1599981,50.1199994 L85.8399979,50.1199994 Z M96.1999977,50.1199994 L96.1999977,23.44 L91.5199978,23.44 L91.5199978,50.1199994 L96.1999977,50.1199994 Z M124.999997,50.1199994 L124.999997,23.44 L120.319997,23.44 L120.319997,41.9599995 L106.679997,23.44 L101.879998,23.44 L101.879998,50.1199994 L106.559997,50.1199994 L106.559997,31.0799998 L120.479997,50.1199994 L124.999997,50.1199994 Z M135.359997,50.1199994 L135.359997,23.44 L130.679997,23.44 L130.679997,50.1199994 L135.359997,50.1199994 Z M150.159996,50.5999993 C157.359996,50.5999993 160.479996,46.7999994 160.479996,42.3599995 C160.479996,32.3999998 144.959997,35.4799997 144.959997,30.5199998 C144.959997,28.5199999 146.719996,27.1999999 149.479996,27.1999999 C152.279996,27.1999999 155.119996,28.1599999 157.199996,30.2399998 L159.879996,26.7599999 C157.399996,24.36 154.039996,23.04 149.879996,23.04 C144.039997,23.04 140.159997,26.4399999 140.159997,30.8399998 C140.159997,40.6799996 155.719996,37.1999997 155.719996,42.7999995 C155.719996,44.5599995 154.199996,46.4399994 150.359996,46.4399994 C146.639996,46.4399994 143.759997,44.7199995 141.919997,42.7599995 L139.319997,46.3599994 C141.679997,48.8799994 145.239997,50.5999993 150.159996,50.5999993 Z M175.439996,50.1199994 L175.439996,27.5599999 L183.519996,27.5599999 L183.519996,23.44 L162.679996,23.44 L162.679996,27.5599999 L170.759996,27.5599999 L170.759996,50.1199994 L175.439996,50.1199994 Z M208.119995,50.1199994 L202.719995,50.1199994 L196.799995,40.1599996 L192.159995,40.1599996 L192.159995,50.1199994 L187.479996,50.1199994 L187.479996,23.44 L199.199995,23.44 C204.479995,23.44 207.919995,26.8799999 207.919995,31.7999998 C207.919995,36.5599997 204.799995,39.1199996 201.599995,39.6399996 L208.119995,50.1199994 Z M198.559995,36.0399997 C201.199995,36.0399997 203.119995,34.3599997 203.119995,31.7999998 C203.119995,29.2399999 201.199995,27.5599999 198.559995,27.5599999 L192.159995,27.5599999 L192.159995,36.0399997 L198.559995,36.0399997 Z M236.599994,50.1199994 L231.279994,50.1199994 L229.319995,44.9999995 L217.079995,44.9999995 L215.119995,50.1199994 L209.799995,50.1199994 L220.279995,23.44 L226.119995,23.44 L236.599994,50.1199994 Z M227.999995,40.8799996 L223.199995,28.1599999 L218.399995,40.8799996 L227.999995,40.8799996 Z M247.959994,50.1199994 L243.279994,50.1199994 L243.279994,27.5599999 L235.199994,27.5599999 L235.199994,23.44 L256.039994,23.44 L256.039994,27.5599999 L247.959994,27.5599999 L247.959994,50.1199994 Z M264.679994,50.1199994 L264.679994,23.44 L259.999994,23.44 L259.999994,50.1199994 L264.679994,50.1199994 Z M283.879993,50.1199994 L294.359993,23.44 L289.039993,23.44 L280.959993,45.0399995 L272.879993,23.44 L267.559994,23.44 L278.039993,50.1199994 L283.879993,50.1199994 Z M315.559992,50.1199994 L315.559992,45.9999995 L301.959993,45.9999995 L301.959993,38.5999996 L315.279992,38.5999996 L315.279992,34.4799997 L301.959993,34.4799997 L301.959993,27.5599999 L315.559992,27.5599999 L315.559992,23.44 L297.279993,23.44 L297.279993,50.1199994 L315.559992,50.1199994 Z M343.439992,50.6399993 C348.079992,50.6399993 351.799992,48.7199994 354.439992,45.7999995 L354.439992,35.7999997 L341.799992,35.7999997 L341.799992,39.9199996 L349.759992,39.9199996 L349.759992,44.0799995 C348.559992,45.1999995 346.159992,46.4799994 343.439992,46.4799994 C338.159992,46.4799994 334.239992,42.3999995 334.239992,36.7999997 C334.239992,31.1999998 338.159992,27.1599999 343.439992,27.1599999 C346.439992,27.1599999 348.959992,28.7199999 350.359992,30.7199998 L354.199992,28.5599999 C352.039992,25.4799999 348.639992,23 343.439992,23 C335.719992,23 329.439992,28.4399999 329.439992,36.7999997 C329.439992,45.1599995 335.719992,50.6399993 343.439992,50.6399993 Z M383.119991,50.1199994 L377.799991,50.1199994 L375.839991,44.9999995 L363.599991,44.9999995 L361.639991,50.1199994 L356.319991,50.1199994 L366.799991,23.44 L372.639991,23.44 L383.119991,50.1199994 Z M374.519991,40.8799996 L369.719991,28.1599999 L364.919991,40.8799996 L374.519991,40.8799996 Z M394.479991,50.1199994 L389.799991,50.1199994 L389.799991,27.5599999 L381.719991,27.5599999 L381.719991,23.44 L402.55999,23.44 L402.55999,27.5599999 L394.479991,27.5599999 L394.479991,50.1199994 Z M424.79999,50.1199994 L424.79999,45.9999995 L411.19999,45.9999995 L411.19999,38.5999996 L424.51999,38.5999996 L424.51999,34.4799997 L411.19999,34.4799997 L411.19999,27.5599999 L424.79999,27.5599999 L424.79999,23.44 L406.51999,23.44 L406.51999,50.1199994 L424.79999,50.1199994 Z M454.999989,50.1199994 L449.999989,50.1199994 L444.799989,30.4399998 L439.639989,50.1199994 L434.63999,50.1199994 L426.99999,23.44 L432.23999,23.44 L437.43999,43.9999995 L442.959989,23.44 L446.679989,23.44 L452.199989,43.9999995 L457.359989,23.44 L462.599989,23.44 L454.999989,50.1199994 Z M487.919988,50.1199994 L482.599988,50.1199994 L480.639989,44.9999995 L468.399989,44.9999995 L466.439989,50.1199994 L461.119989,50.1199994 L471.599989,23.44 L477.439989,23.44 L487.919988,50.1199994 Z M479.319989,40.8799996 L474.519989,28.1599999 L469.719989,40.8799996 L479.319989,40.8799996 Z M500.479988,50.1199994 L495.799988,50.1199994 L495.799988,39.0399996 L485.439988,23.44 L490.799988,23.44 L498.159988,34.8799997 L505.439988,23.44 L510.799988,23.44 L500.479988,39.0399996 L500.479988,50.1199994 Z" id="ADMINISTRATIVE-GATEW"></path>
                    <path d="M6.174,12.42 C8.298,12.42 9.738,11.412 10.746,10.044 L9.468,9.342 C8.784,10.368 7.542,11.088 6.174,11.088 C3.546,11.088 1.548,9.054 1.548,6.21 C1.548,3.348 3.546,1.332 6.174,1.332 C7.542,1.332 8.784,2.07 9.468,3.078 L10.728,2.376 C9.774,1.026 8.298,0 6.174,0 C2.718,0 0,2.52 0,6.21 C0,9.9 2.718,12.42 6.174,12.42 Z M18.126,12.42 C14.562,12.42 12.168,9.756 12.168,6.21 C12.168,2.664 14.562,0 18.126,0 C21.672,0 24.084,2.664 24.084,6.21 C24.084,9.756 21.672,12.42 18.126,12.42 Z M18.126,11.088 C20.808,11.088 22.536,9 22.536,6.21 C22.536,3.402 20.808,1.332 18.126,1.332 C15.426,1.332 13.716,3.402 13.716,6.21 C13.716,9 15.426,11.088 18.126,11.088 Z M33.498,12.204 L33.498,10.872 L27.918,10.872 L27.918,0.198 L26.424,0.198 L26.424,12.204 L33.498,12.204 Z M42.678,12.204 L42.678,10.872 L37.098,10.872 L37.098,0.198 L35.604,0.198 L35.604,12.204 L42.678,12.204 Z M52.65,12.204 L52.65,10.872 L46.278,10.872 L46.278,6.732 L52.524,6.732 L52.524,5.4 L46.278,5.4 L46.278,1.53 L52.65,1.53 L52.65,0.198 L44.784,0.198 L44.784,12.204 L52.65,12.204 Z M60.714,12.438 C62.676,12.438 64.314,11.61 65.43,10.368 L65.43,6.03 L59.814,6.03 L59.814,7.362 L63.936,7.362 L63.936,9.81 C63.342,10.404 62.154,11.106 60.714,11.106 C58.086,11.106 56.088,9.054 56.088,6.21 C56.088,3.348 58.086,1.332 60.714,1.332 C62.154,1.332 63.432,2.016 64.188,2.988 L65.376,2.25 C64.314,0.936 62.838,0 60.714,0 C57.294,0 54.54,2.484 54.54,6.21 C54.54,9.936 57.294,12.438 60.714,12.438 Z M75.726,12.204 L75.726,10.872 L69.354,10.872 L69.354,6.732 L75.6,6.732 L75.6,5.4 L69.354,5.4 L69.354,1.53 L75.726,1.53 L75.726,0.198 L67.86,0.198 L67.86,12.204 L75.726,12.204 Z M88.218,12.42 C84.654,12.42 82.26,9.756 82.26,6.21 C82.26,2.664 84.654,0 88.218,0 C91.764,0 94.176,2.664 94.176,6.21 C94.176,9.756 91.764,12.42 88.218,12.42 Z M88.218,11.088 C90.9,11.088 92.628,9 92.628,6.21 C92.628,3.402 90.9,1.332 88.218,1.332 C85.518,1.332 83.808,3.402 83.808,6.21 C83.808,9 85.518,11.088 88.218,11.088 Z M98.01,12.204 L98.01,6.732 L104.256,6.732 L104.256,5.4 L98.01,5.4 L98.01,1.53 L104.382,1.53 L104.382,0.198 L96.516,0.198 L96.516,12.204 L98.01,12.204 Z M121.338,12.204 L119.628,12.204 L118.566,9.54 L112.59,9.54 L111.528,12.204 L109.818,12.204 L114.642,0.198 L116.496,0.198 L121.338,12.204 Z M118.116,8.208 L115.578,1.746 L113.022,8.208 L118.116,8.208 Z M131.616,12.204 L129.852,12.204 L126.792,7.434 L124.398,7.434 L124.398,12.204 L122.904,12.204 L122.904,0.198 L127.728,0.198 C129.924,0.198 131.49,1.602 131.49,3.816 C131.49,5.976 130.014,7.164 128.376,7.308 L131.616,12.204 Z M127.548,6.12 C128.97,6.12 129.942,5.166 129.942,3.816 C129.942,2.466 128.97,1.53 127.548,1.53 L124.398,1.53 L124.398,6.12 L127.548,6.12 Z M138.132,12.204 L138.132,1.53 L141.948,1.53 L141.948,0.198 L132.84,0.198 L132.84,1.53 L136.638,1.53 L136.638,12.204 L138.132,12.204 Z M147.762,12.42 C151.002,12.42 152.19,10.638 152.19,8.892 C152.19,4.41 145.08,5.958 145.08,3.258 C145.08,2.124 146.106,1.35 147.546,1.35 C148.86,1.35 150.12,1.8 151.02,2.79 L151.92,1.692 C150.912,0.63 149.49,0.018 147.654,0.018 C145.296,0.018 143.532,1.368 143.532,3.348 C143.532,7.632 150.642,5.922 150.642,9.018 C150.642,9.936 149.958,11.088 147.816,11.088 C146.124,11.088 144.828,10.26 144.036,9.378 L143.154,10.512 C144.144,11.628 145.674,12.42 147.762,12.42 Z M169.344,12.204 L167.634,12.204 L166.572,9.54 L160.596,9.54 L159.534,12.204 L157.824,12.204 L162.648,0.198 L164.502,0.198 L169.344,12.204 Z M166.122,8.208 L163.584,1.746 L161.028,8.208 L166.122,8.208 Z M180.846,12.204 L180.846,0.198 L179.352,0.198 L179.352,9.576 L172.44,0.198 L170.91,0.198 L170.91,12.204 L172.404,12.204 L172.404,2.628 L179.406,12.204 L180.846,12.204 Z M187.758,12.204 L183.654,12.204 L183.654,0.198 L187.758,0.198 C191.484,0.198 193.914,2.808 193.914,6.21 C193.914,9.63 191.484,12.204 187.758,12.204 Z M187.758,10.872 C190.674,10.872 192.366,8.784 192.366,6.21 C192.366,3.618 190.728,1.53 187.758,1.53 L185.148,1.53 L185.148,10.872 L187.758,10.872 Z M204.786,12.42 C208.026,12.42 209.214,10.638 209.214,8.892 C209.214,4.41 202.104,5.958 202.104,3.258 C202.104,2.124 203.13,1.35 204.57,1.35 C205.884,1.35 207.144,1.8 208.044,2.79 L208.944,1.692 C207.936,0.63 206.514,0.018 204.678,0.018 C202.32,0.018 200.556,1.368 200.556,3.348 C200.556,7.632 207.666,5.922 207.666,9.018 C207.666,9.936 206.982,11.088 204.84,11.088 C203.148,11.088 201.852,10.26 201.06,9.378 L200.178,10.512 C201.168,11.628 202.698,12.42 204.786,12.42 Z M217.134,12.42 C219.258,12.42 220.698,11.412 221.706,10.044 L220.428,9.342 C219.744,10.368 218.502,11.088 217.134,11.088 C214.506,11.088 212.508,9.054 212.508,6.21 C212.508,3.348 214.506,1.332 217.134,1.332 C218.502,1.332 219.744,2.07 220.428,3.078 L221.688,2.376 C220.734,1.026 219.258,0 217.134,0 C213.678,0 210.96,2.52 210.96,6.21 C210.96,9.9 213.678,12.42 217.134,12.42 Z M225.108,12.204 L225.108,0.198 L223.614,0.198 L223.614,12.204 L225.108,12.204 Z M235.782,12.204 L235.782,10.872 L229.41,10.872 L229.41,6.732 L235.656,6.732 L235.656,5.4 L229.41,5.4 L229.41,1.53 L235.782,1.53 L235.782,0.198 L227.916,0.198 L227.916,12.204 L235.782,12.204 Z M248.094,12.204 L248.094,0.198 L246.6,0.198 L246.6,9.576 L239.688,0.198 L238.158,0.198 L238.158,12.204 L239.652,12.204 L239.652,2.628 L246.654,12.204 L248.094,12.204 Z M256.59,12.42 C258.714,12.42 260.154,11.412 261.162,10.044 L259.884,9.342 C259.2,10.368 257.958,11.088 256.59,11.088 C253.962,11.088 251.964,9.054 251.964,6.21 C251.964,3.348 253.962,1.332 256.59,1.332 C257.958,1.332 259.2,2.07 259.884,3.078 L261.144,2.376 C260.19,1.026 258.714,0 256.59,0 C253.134,0 250.416,2.52 250.416,6.21 C250.416,9.9 253.134,12.42 256.59,12.42 Z M270.936,12.204 L270.936,10.872 L264.564,10.872 L264.564,6.732 L270.81,6.732 L270.81,5.4 L264.564,5.4 L264.564,1.53 L270.936,1.53 L270.936,0.198 L263.07,0.198 L263.07,12.204 L270.936,12.204 Z M277.2,12.42 C280.44,12.42 281.628,10.638 281.628,8.892 C281.628,4.41 274.518,5.958 274.518,3.258 C274.518,2.124 275.544,1.35 276.984,1.35 C278.298,1.35 279.558,1.8 280.458,2.79 L281.358,1.692 C280.35,0.63 278.928,0.018 277.092,0.018 C274.734,0.018 272.97,1.368 272.97,3.348 C272.97,7.632 280.08,5.922 280.08,9.018 C280.08,9.936 279.396,11.088 277.254,11.088 C275.562,11.088 274.266,10.26 273.474,9.378 L272.592,10.512 C273.582,11.628 275.112,12.42 277.2,12.42 Z" id="COLLEGE-OF-ARTS-AND"></path>
                </g>
            </g>
        </g>
    </g>
</svg>