<?xml version="1.0" encoding="UTF-8" standalone="no"?>
<svg width="770px" height="150px" viewBox="0 0 770 150" version="1.1" xmlns="http://www.w3.org/2000/svg" xmlns:xlink="http://www.w3.org/1999/xlink">
    <!-- Generator: Sketch 47.1 (45422) - http://www.bohemiancoding.com/sketch -->
    <title>Content</title>
    <desc>Created with Sketch.</desc>
    <defs></defs>
    <g id="Landing-Page" stroke="none" stroke-width="1" fill="none" fill-rule="evenodd">
        <g id="Desktop-HD---Landing-Page" transform="translate(-139.000000, -1280.000000)" fill="#5D0000">
            <g id="Footer" transform="translate(0.000000, 1280.000000)">
                <g id="Top">
                    <g id="Content" transform="translate(120.000000, -43.000000)">
                        <g id="leaf" transform="translate(100.484375, 154.617188) rotate(-23.000000) translate(-100.484375, -154.617188) translate(26.984375, 73.117188)">
                            <path d="M143.979727,45.4357469 C140.375969,43.0511173 136.213311,41.6560586 132.011519,40.6986852 C127.968266,39.7760247 123.858788,38.9766204 119.688604,39.2090463 C115.668932,39.4314105 111.725519,40.4466389 107.9863,41.8869753 C99.4828771,45.1665957 91.3155973,50.3252438 86.0757747,57.8529259 C84.4923891,60.1288889 83.1478157,62.5557778 81.8142799,64.978642 C80.4692048,67.4155926 79.1532287,69.7650062 77.6235256,71.9312963 C76.9532457,72.7518302 76.2438328,73.5351358 75.4932799,74.2847346 C74.8129659,74.9186235 73.4377884,76.115466 72.5628123,75.8146204 C71.9758157,75.6133858 71.7931945,74.712358 71.7354983,74.1217346 C71.9276519,68.9817006 74.7718259,64.9982623 77.6606519,61.3695 C84.5445666,52.7083642 87.1950819,42.3955957 84.8817133,33.0809506 C83.4734232,27.5379444 79.8240102,23.0956914 76.2232628,18.8124136 C73.9435085,16.1027901 71.6100717,13.2422407 69.9740068,10.0843673 C69.1612423,8.22848148 68.5842799,6.26895988 68.3745666,4.29283642 C68.3023208,3.63479938 68.3023208,2.97022222 68.3334266,2.30816049 C68.3625256,1.69892284 68.5586928,0.97095679 68.4648737,0.377314815 C67.5186553,0.644453704 66.4931672,1.57516358 65.7275631,2.17635185 C64.2741195,3.31835802 62.9952696,4.6565679 61.7931809,6.05363889 C53.672058,15.4945586 47.241686,28.4626173 50.4365529,41.040784 C52.2406894,48.1428549 55.6588157,53.8418179 60.0918942,59.6373735 C61.6155768,61.6290926 63.1367509,63.6198056 64.4973788,65.7257253 C65.7983038,67.7395802 67.0269829,69.8424815 67.8136587,72.1114012 C68.0313993,72.7412654 68.2150239,73.3806883 68.3725597,74.0271543 C68.4508259,74.3516451 68.5240751,74.6776451 68.5933106,75.0041481 C68.6896382,75.4579321 68.9981877,76.1104352 68.6254198,76.5259846 C68.1136792,77.0939691 66.922628,77.0673056 66.0526689,76.9143673 C63.3906143,76.2452623 61.0330956,73.8379938 58.6414608,69.4364907 C56.4791058,65.3992222 54.0398089,61.2044877 49.9659522,57.6054074 C46.6546894,54.6794568 42.6189625,52.4497778 38.4186758,51.0733333 C34.1150375,49.6621759 29.5700785,48.9085525 25.0311399,49.2169444 C19.2695427,49.6098549 13.7296997,51.717787 7.90488737,51.1397407 C6.40177474,50.9913302 4.9127099,50.6683488 3.51294881,50.1043889 C2.89283959,49.854858 2.29982253,49.5424414 1.72486689,49.2013488 C1.19506485,48.8879259 0.638672355,48.3737716 0.065221843,48.1745494 C-0.143488055,49.1253827 0.200180887,50.460071 0.376279863,51.4098981 C1.10776792,55.4169815 2.91090102,59.431108 4.86956314,62.9909475 C6.72035836,66.3550864 9.19326962,69.5104444 12.1503276,71.987642 C15.0321297,74.4019537 18.3007474,76.4495154 21.7324198,78.0090833 C23.7277065,78.9156451 25.8082833,79.6853673 27.9003993,80.3403858 C32.1453379,81.669037 36.5713925,82.6958364 41.0305597,82.8865062 C45.2263311,83.0671142 49.3548737,82.2863241 53.4548191,81.4949691 C57.2236382,80.7403395 62.5015904,79.8966636 66.1610375,79.9595494 C66.6206007,79.9660895 67.2146212,80.0928673 67.2256587,80.6236235 C67.2537543,81.9864846 65.4124915,83.0032222 64.4221229,83.6527068 C63.7904744,84.0647346 63.0775495,84.3474691 62.3716485,84.6080679 C60.5750375,85.272142 58.7056792,85.6051852 56.7981911,85.7616451 C55.5599795,85.8627654 54.3087235,85.8803735 53.0659966,85.8300648 C48.1342218,85.6484506 42.843727,85.604179 37.2010341,87.3986883 C26.6717201,90.7759074 17.5677543,99.8460525 14.0171775,110.48633 C13.604273,111.815988 13.2034096,113.126528 12.8446894,114.43254 C11.6807304,118.706762 10.3492014,123.857361 6.59794198,126.658043 C6.06161775,127.061519 5.48164505,127.40563 4.88561775,127.721065 C4.33675085,128.010843 3.59422526,128.221133 3.12713652,128.608509 C3.87869283,129.279627 5.25637884,129.673543 6.19958703,130.02017 C7.99619795,130.673679 9.86655973,131.074639 11.7459522,131.378503 C21.8723959,133.023093 31.8563549,131.165194 40.3823549,125.515031 C42.823157,123.897608 45.1997406,122.056312 47.3615939,120.098299 C50.0376962,117.667386 52.5597747,114.96229 54.7963823,112.139975 C58.4347577,107.493469 60.2208328,102.254327 61.8834881,97.1927747 C63.4016519,92.6790833 65.1345461,88.5502531 67.7986075,84.8072901 C68.2381024,84.3328796 69.0358157,83.8297932 69.8445666,84.183463 C70.8700546,84.6342284 71.1560273,85.4698549 71.4600614,85.9689167 C72.8277133,88.7690957 74.4171195,92.9029568 74.6228191,93.4472963 C77.7705256,101.810102 79.068942,110.746929 78.6806212,119.63546 C78.3103618,128.174849 77.2883857,136.712728 74.5806758,144.864238 C73.8030307,147.206608 72.8959454,149.504204 71.8503891,151.741429 C70.4666826,154.70008 68.8240956,157.473093 66.4961775,159.802886 C66.3145597,159.983494 64.1160819,161.711596 64.1221024,161.737253 C64.1266177,161.761904 64.1341433,161.785549 64.1421706,161.811207 C66.0346075,162.249395 70.2690102,163.028676 72.831727,161.958611 C73.4578567,161.07016 73.7719249,159.80188 74.1165973,158.841488 C74.7582799,157.061065 75.3412628,155.261022 75.8555119,153.441358 C77.2316928,148.582549 78.368058,143.600485 79.3478908,138.650617 C80.8168874,131.223049 81.5980444,123.648077 81.4234505,116.07562 C81.3687645,113.667849 81.2117304,111.263599 80.9483345,108.867901 C80.5043242,104.851259 79.7597918,100.866815 78.6896519,96.9583364 C78.4021741,95.9114136 76.4083925,88.6267222 74.5159556,84.8435123 C74.4878601,84.2865957 74.6649625,84.2720062 74.8285188,84.1774259 C74.9755188,84.0959259 75.3598259,84.2176728 75.692959,84.3514938 C78.2180478,85.5563858 80.2710307,88.4773056 81.9703106,93.1761327 C83.6068771,97.6596389 85.5038294,102.415315 89.2596041,106.850022 C96.2905188,115.115228 108.15387,120.125466 119.455311,119.610809 C120.856577,119.518241 122.23627,119.424164 123.595392,119.289336 C128.039007,118.852154 133.367631,118.254991 137.375263,120.644651 C137.951724,120.985241 138.488549,121.386201 139.002297,121.809799 C139.475406,122.199691 139.944,122.79434 140.478819,123.077577 C140.834529,122.170512 140.703082,120.801614 140.679502,119.835688 C140.636355,117.998417 140.326802,116.182275 139.924935,114.391287 C137.76258,104.74712 132.356693,96.4441821 123.923509,90.7638333 C121.506287,89.137858 118.904437,87.647213 116.270478,86.3905031 C113.007379,84.8349599 109.54159,83.5153642 106.067775,82.4925895 C100.366884,80.842466 94.7864027,81.0628179 89.4191468,81.3289506 C84.9313823,81.5216327 80.6553379,81.7072716 76.4455188,80.842466 C76.082785,80.6915401 75.886116,80.4651512 75.7792526,80.0309877 C75.667372,79.5837438 76.0898089,79.043429 76.4209352,78.7008272 C78.737314,76.5858519 82.4760307,76.2920494 88.2807747,77.8214321 C93.0379556,79.0383981 98.1658976,80.1743673 103.868795,79.6350586 C105.803375,79.4423765 107.719894,79.043429 109.6033,78.4865123 C109.714177,78.4568302 109.822546,78.4256389 109.934427,78.3949506 C110.113034,78.3401142 110.293147,78.2857809 110.472256,78.2269198 C118.924003,75.678284 126.782734,69.9350494 131.583061,62.4777994 C132.313546,61.2900123 133.029481,60.1198333 133.701768,58.9426111 C135.89272,55.0985278 138.466976,50.4414568 142.749041,48.5755093 C143.361625,48.3073642 144.000297,48.102608 144.648502,47.9315586 C145.244027,47.7725833 146.004614,47.7343488 146.547461,47.4641914 C146.001604,46.6552284 144.791488,45.9735463 143.979727,45.4357469"></path>
                        </g>
                        <g id="leaf" transform="translate(235.006620, 106.008351) rotate(17.000000) translate(-235.006620, -106.008351) translate(161.506620, 24.508351)">
                            <path d="M143.979727,45.4357469 C140.375969,43.0511173 136.213311,41.6560586 132.011519,40.6986852 C127.968266,39.7760247 123.858788,38.9766204 119.688604,39.2090463 C115.668932,39.4314105 111.725519,40.4466389 107.9863,41.8869753 C99.4828771,45.1665957 91.3155973,50.3252438 86.0757747,57.8529259 C84.4923891,60.1288889 83.1478157,62.5557778 81.8142799,64.978642 C80.4692048,67.4155926 79.1532287,69.7650062 77.6235256,71.9312963 C76.9532457,72.7518302 76.2438328,73.5351358 75.4932799,74.2847346 C74.8129659,74.9186235 73.4377884,76.115466 72.5628123,75.8146204 C71.9758157,75.6133858 71.7931945,74.712358 71.7354983,74.1217346 C71.9276519,68.9817006 74.7718259,64.9982623 77.6606519,61.3695 C84.5445666,52.7083642 87.1950819,42.3955957 84.8817133,33.0809506 C83.4734232,27.5379444 79.8240102,23.0956914 76.2232628,18.8124136 C73.9435085,16.1027901 71.6100717,13.2422407 69.9740068,10.0843673 C69.1612423,8.22848148 68.5842799,6.26895988 68.3745666,4.29283642 C68.3023208,3.63479938 68.3023208,2.97022222 68.3334266,2.30816049 C68.3625256,1.69892284 68.5586928,0.97095679 68.4648737,0.377314815 C67.5186553,0.644453704 66.4931672,1.57516358 65.7275631,2.17635185 C64.2741195,3.31835802 62.9952696,4.6565679 61.7931809,6.05363889 C53.672058,15.4945586 47.241686,28.4626173 50.4365529,41.040784 C52.2406894,48.1428549 55.6588157,53.8418179 60.0918942,59.6373735 C61.6155768,61.6290926 63.1367509,63.6198056 64.4973788,65.7257253 C65.7983038,67.7395802 67.0269829,69.8424815 67.8136587,72.1114012 C68.0313993,72.7412654 68.2150239,73.3806883 68.3725597,74.0271543 C68.4508259,74.3516451 68.5240751,74.6776451 68.5933106,75.0041481 C68.6896382,75.4579321 68.9981877,76.1104352 68.6254198,76.5259846 C68.1136792,77.0939691 66.922628,77.0673056 66.0526689,76.9143673 C63.3906143,76.2452623 61.0330956,73.8379938 58.6414608,69.4364907 C56.4791058,65.3992222 54.0398089,61.2044877 49.9659522,57.6054074 C46.6546894,54.6794568 42.6189625,52.4497778 38.4186758,51.0733333 C34.1150375,49.6621759 29.5700785,48.9085525 25.0311399,49.2169444 C19.2695427,49.6098549 13.7296997,51.717787 7.90488737,51.1397407 C6.40177474,50.9913302 4.9127099,50.6683488 3.51294881,50.1043889 C2.89283959,49.854858 2.29982253,49.5424414 1.72486689,49.2013488 C1.19506485,48.8879259 0.638672355,48.3737716 0.065221843,48.1745494 C-0.143488055,49.1253827 0.200180887,50.460071 0.376279863,51.4098981 C1.10776792,55.4169815 2.91090102,59.431108 4.86956314,62.9909475 C6.72035836,66.3550864 9.19326962,69.5104444 12.1503276,71.987642 C15.0321297,74.4019537 18.3007474,76.4495154 21.7324198,78.0090833 C23.7277065,78.9156451 25.8082833,79.6853673 27.9003993,80.3403858 C32.1453379,81.669037 36.5713925,82.6958364 41.0305597,82.8865062 C45.2263311,83.0671142 49.3548737,82.2863241 53.4548191,81.4949691 C57.2236382,80.7403395 62.5015904,79.8966636 66.1610375,79.9595494 C66.6206007,79.9660895 67.2146212,80.0928673 67.2256587,80.6236235 C67.2537543,81.9864846 65.4124915,83.0032222 64.4221229,83.6527068 C63.7904744,84.0647346 63.0775495,84.3474691 62.3716485,84.6080679 C60.5750375,85.272142 58.7056792,85.6051852 56.7981911,85.7616451 C55.5599795,85.8627654 54.3087235,85.8803735 53.0659966,85.8300648 C48.1342218,85.6484506 42.843727,85.604179 37.2010341,87.3986883 C26.6717201,90.7759074 17.5677543,99.8460525 14.0171775,110.48633 C13.604273,111.815988 13.2034096,113.126528 12.8446894,114.43254 C11.6807304,118.706762 10.3492014,123.857361 6.59794198,126.658043 C6.06161775,127.061519 5.48164505,127.40563 4.88561775,127.721065 C4.33675085,128.010843 3.59422526,128.221133 3.12713652,128.608509 C3.87869283,129.279627 5.25637884,129.673543 6.19958703,130.02017 C7.99619795,130.673679 9.86655973,131.074639 11.7459522,131.378503 C21.8723959,133.023093 31.8563549,131.165194 40.3823549,125.515031 C42.823157,123.897608 45.1997406,122.056312 47.3615939,120.098299 C50.0376962,117.667386 52.5597747,114.96229 54.7963823,112.139975 C58.4347577,107.493469 60.2208328,102.254327 61.8834881,97.1927747 C63.4016519,92.6790833 65.1345461,88.5502531 67.7986075,84.8072901 C68.2381024,84.3328796 69.0358157,83.8297932 69.8445666,84.183463 C70.8700546,84.6342284 71.1560273,85.4698549 71.4600614,85.9689167 C72.8277133,88.7690957 74.4171195,92.9029568 74.6228191,93.4472963 C77.7705256,101.810102 79.068942,110.746929 78.6806212,119.63546 C78.3103618,128.174849 77.2883857,136.712728 74.5806758,144.864238 C73.8030307,147.206608 72.8959454,149.504204 71.8503891,151.741429 C70.4666826,154.70008 68.8240956,157.473093 66.4961775,159.802886 C66.3145597,159.983494 64.1160819,161.711596 64.1221024,161.737253 C64.1266177,161.761904 64.1341433,161.785549 64.1421706,161.811207 C66.0346075,162.249395 70.2690102,163.028676 72.831727,161.958611 C73.4578567,161.07016 73.7719249,159.80188 74.1165973,158.841488 C74.7582799,157.061065 75.3412628,155.261022 75.8555119,153.441358 C77.2316928,148.582549 78.368058,143.600485 79.3478908,138.650617 C80.8168874,131.223049 81.5980444,123.648077 81.4234505,116.07562 C81.3687645,113.667849 81.2117304,111.263599 80.9483345,108.867901 C80.5043242,104.851259 79.7597918,100.866815 78.6896519,96.9583364 C78.4021741,95.9114136 76.4083925,88.6267222 74.5159556,84.8435123 C74.4878601,84.2865957 74.6649625,84.2720062 74.8285188,84.1774259 C74.9755188,84.0959259 75.3598259,84.2176728 75.692959,84.3514938 C78.2180478,85.5563858 80.2710307,88.4773056 81.9703106,93.1761327 C83.6068771,97.6596389 85.5038294,102.415315 89.2596041,106.850022 C96.2905188,115.115228 108.15387,120.125466 119.455311,119.610809 C120.856577,119.518241 122.23627,119.424164 123.595392,119.289336 C128.039007,118.852154 133.367631,118.254991 137.375263,120.644651 C137.951724,120.985241 138.488549,121.386201 139.002297,121.809799 C139.475406,122.199691 139.944,122.79434 140.478819,123.077577 C140.834529,122.170512 140.703082,120.801614 140.679502,119.835688 C140.636355,117.998417 140.326802,116.182275 139.924935,114.391287 C137.76258,104.74712 132.356693,96.4441821 123.923509,90.7638333 C121.506287,89.137858 118.904437,87.647213 116.270478,86.3905031 C113.007379,84.8349599 109.54159,83.5153642 106.067775,82.4925895 C100.366884,80.842466 94.7864027,81.0628179 89.4191468,81.3289506 C84.9313823,81.5216327 80.6553379,81.7072716 76.4455188,80.842466 C76.082785,80.6915401 75.886116,80.4651512 75.7792526,80.0309877 C75.667372,79.5837438 76.0898089,79.043429 76.4209352,78.7008272 C78.737314,76.5858519 82.4760307,76.2920494 88.2807747,77.8214321 C93.0379556,79.0383981 98.1658976,80.1743673 103.868795,79.6350586 C105.803375,79.4423765 107.719894,79.043429 109.6033,78.4865123 C109.714177,78.4568302 109.822546,78.4256389 109.934427,78.3949506 C110.113034,78.3401142 110.293147,78.2857809 110.472256,78.2269198 C118.924003,75.678284 126.782734,69.9350494 131.583061,62.4777994 C132.313546,61.2900123 133.029481,60.1198333 133.701768,58.9426111 C135.89272,55.0985278 138.466976,50.4414568 142.749041,48.5755093 C143.361625,48.3073642 144.000297,48.102608 144.648502,47.9315586 C145.244027,47.7725833 146.004614,47.7343488 146.547461,47.4641914 C146.001604,46.6552284 144.791488,45.9735463 143.979727,45.4357469"></path>
                        </g>
                        <g id="leaf" transform="translate(705.812006, 103.838314) rotate(202.000000) translate(-705.812006, -103.838314) translate(632.312006, 22.338314)">
                            <path d="M143.979727,45.4357469 C140.375969,43.0511173 136.213311,41.6560586 132.011519,40.6986852 C127.968266,39.7760247 123.858788,38.9766204 119.688604,39.2090463 C115.668932,39.4314105 111.725519,40.4466389 107.9863,41.8869753 C99.4828771,45.1665957 91.3155973,50.3252438 86.0757747,57.8529259 C84.4923891,60.1288889 83.1478157,62.5557778 81.8142799,64.978642 C80.4692048,67.4155926 79.1532287,69.7650062 77.6235256,71.9312963 C76.9532457,72.7518302 76.2438328,73.5351358 75.4932799,74.2847346 C74.8129659,74.9186235 73.4377884,76.115466 72.5628123,75.8146204 C71.9758157,75.6133858 71.7931945,74.712358 71.7354983,74.1217346 C71.9276519,68.9817006 74.7718259,64.9982623 77.6606519,61.3695 C84.5445666,52.7083642 87.1950819,42.3955957 84.8817133,33.0809506 C83.4734232,27.5379444 79.8240102,23.0956914 76.2232628,18.8124136 C73.9435085,16.1027901 71.6100717,13.2422407 69.9740068,10.0843673 C69.1612423,8.22848148 68.5842799,6.26895988 68.3745666,4.29283642 C68.3023208,3.63479938 68.3023208,2.97022222 68.3334266,2.30816049 C68.3625256,1.69892284 68.5586928,0.97095679 68.4648737,0.377314815 C67.5186553,0.644453704 66.4931672,1.57516358 65.7275631,2.17635185 C64.2741195,3.31835802 62.9952696,4.6565679 61.7931809,6.05363889 C53.672058,15.4945586 47.241686,28.4626173 50.4365529,41.040784 C52.2406894,48.1428549 55.6588157,53.8418179 60.0918942,59.6373735 C61.6155768,61.6290926 63.1367509,63.6198056 64.4973788,65.7257253 C65.7983038,67.7395802 67.0269829,69.8424815 67.8136587,72.1114012 C68.0313993,72.7412654 68.2150239,73.3806883 68.3725597,74.0271543 C68.4508259,74.3516451 68.5240751,74.6776451 68.5933106,75.0041481 C68.6896382,75.4579321 68.9981877,76.1104352 68.6254198,76.5259846 C68.1136792,77.0939691 66.922628,77.0673056 66.0526689,76.9143673 C63.3906143,76.2452623 61.0330956,73.8379938 58.6414608,69.4364907 C56.4791058,65.3992222 54.0398089,61.2044877 49.9659522,57.6054074 C46.6546894,54.6794568 42.6189625,52.4497778 38.4186758,51.0733333 C34.1150375,49.6621759 29.5700785,48.9085525 25.0311399,49.2169444 C19.2695427,49.6098549 13.7296997,51.717787 7.90488737,51.1397407 C6.40177474,50.9913302 4.9127099,50.6683488 3.51294881,50.1043889 C2.89283959,49.854858 2.29982253,49.5424414 1.72486689,49.2013488 C1.19506485,48.8879259 0.638672355,48.3737716 0.065221843,48.1745494 C-0.143488055,49.1253827 0.200180887,50.460071 0.376279863,51.4098981 C1.10776792,55.4169815 2.91090102,59.431108 4.86956314,62.9909475 C6.72035836,66.3550864 9.19326962,69.5104444 12.1503276,71.987642 C15.0321297,74.4019537 18.3007474,76.4495154 21.7324198,78.0090833 C23.7277065,78.9156451 25.8082833,79.6853673 27.9003993,80.3403858 C32.1453379,81.669037 36.5713925,82.6958364 41.0305597,82.8865062 C45.2263311,83.0671142 49.3548737,82.2863241 53.4548191,81.4949691 C57.2236382,80.7403395 62.5015904,79.8966636 66.1610375,79.9595494 C66.6206007,79.9660895 67.2146212,80.0928673 67.2256587,80.6236235 C67.2537543,81.9864846 65.4124915,83.0032222 64.4221229,83.6527068 C63.7904744,84.0647346 63.0775495,84.3474691 62.3716485,84.6080679 C60.5750375,85.272142 58.7056792,85.6051852 56.7981911,85.7616451 C55.5599795,85.8627654 54.3087235,85.8803735 53.0659966,85.8300648 C48.1342218,85.6484506 42.843727,85.604179 37.2010341,87.3986883 C26.6717201,90.7759074 17.5677543,99.8460525 14.0171775,110.48633 C13.604273,111.815988 13.2034096,113.126528 12.8446894,114.43254 C11.6807304,118.706762 10.3492014,123.857361 6.59794198,126.658043 C6.06161775,127.061519 5.48164505,127.40563 4.88561775,127.721065 C4.33675085,128.010843 3.59422526,128.221133 3.12713652,128.608509 C3.87869283,129.279627 5.25637884,129.673543 6.19958703,130.02017 C7.99619795,130.673679 9.86655973,131.074639 11.7459522,131.378503 C21.8723959,133.023093 31.8563549,131.165194 40.3823549,125.515031 C42.823157,123.897608 45.1997406,122.056312 47.3615939,120.098299 C50.0376962,117.667386 52.5597747,114.96229 54.7963823,112.139975 C58.4347577,107.493469 60.2208328,102.254327 61.8834881,97.1927747 C63.4016519,92.6790833 65.1345461,88.5502531 67.7986075,84.8072901 C68.2381024,84.3328796 69.0358157,83.8297932 69.8445666,84.183463 C70.8700546,84.6342284 71.1560273,85.4698549 71.4600614,85.9689167 C72.8277133,88.7690957 74.4171195,92.9029568 74.6228191,93.4472963 C77.7705256,101.810102 79.068942,110.746929 78.6806212,119.63546 C78.3103618,128.174849 77.2883857,136.712728 74.5806758,144.864238 C73.8030307,147.206608 72.8959454,149.504204 71.8503891,151.741429 C70.4666826,154.70008 68.8240956,157.473093 66.4961775,159.802886 C66.3145597,159.983494 64.1160819,161.711596 64.1221024,161.737253 C64.1266177,161.761904 64.1341433,161.785549 64.1421706,161.811207 C66.0346075,162.249395 70.2690102,163.028676 72.831727,161.958611 C73.4578567,161.07016 73.7719249,159.80188 74.1165973,158.841488 C74.7582799,157.061065 75.3412628,155.261022 75.8555119,153.441358 C77.2316928,148.582549 78.368058,143.600485 79.3478908,138.650617 C80.8168874,131.223049 81.5980444,123.648077 81.4234505,116.07562 C81.3687645,113.667849 81.2117304,111.263599 80.9483345,108.867901 C80.5043242,104.851259 79.7597918,100.866815 78.6896519,96.9583364 C78.4021741,95.9114136 76.4083925,88.6267222 74.5159556,84.8435123 C74.4878601,84.2865957 74.6649625,84.2720062 74.8285188,84.1774259 C74.9755188,84.0959259 75.3598259,84.2176728 75.692959,84.3514938 C78.2180478,85.5563858 80.2710307,88.4773056 81.9703106,93.1761327 C83.6068771,97.6596389 85.5038294,102.415315 89.2596041,106.850022 C96.2905188,115.115228 108.15387,120.125466 119.455311,119.610809 C120.856577,119.518241 122.23627,119.424164 123.595392,119.289336 C128.039007,118.852154 133.367631,118.254991 137.375263,120.644651 C137.951724,120.985241 138.488549,121.386201 139.002297,121.809799 C139.475406,122.199691 139.944,122.79434 140.478819,123.077577 C140.834529,122.170512 140.703082,120.801614 140.679502,119.835688 C140.636355,117.998417 140.326802,116.182275 139.924935,114.391287 C137.76258,104.74712 132.356693,96.4441821 123.923509,90.7638333 C121.506287,89.137858 118.904437,87.647213 116.270478,86.3905031 C113.007379,84.8349599 109.54159,83.5153642 106.067775,82.4925895 C100.366884,80.842466 94.7864027,81.0628179 89.4191468,81.3289506 C84.9313823,81.5216327 80.6553379,81.7072716 76.4455188,80.842466 C76.082785,80.6915401 75.886116,80.4651512 75.7792526,80.0309877 C75.667372,79.5837438 76.0898089,79.043429 76.4209352,78.7008272 C78.737314,76.5858519 82.4760307,76.2920494 88.2807747,77.8214321 C93.0379556,79.0383981 98.1658976,80.1743673 103.868795,79.6350586 C105.803375,79.4423765 107.719894,79.043429 109.6033,78.4865123 C109.714177,78.4568302 109.822546,78.4256389 109.934427,78.3949506 C110.113034,78.3401142 110.293147,78.2857809 110.472256,78.2269198 C118.924003,75.678284 126.782734,69.9350494 131.583061,62.4777994 C132.313546,61.2900123 133.029481,60.1198333 133.701768,58.9426111 C135.89272,55.0985278 138.466976,50.4414568 142.749041,48.5755093 C143.361625,48.3073642 144.000297,48.102608 144.648502,47.9315586 C145.244027,47.7725833 146.004614,47.7343488 146.547461,47.4641914 C146.001604,46.6552284 144.791488,45.9735463 143.979727,45.4357469"></path>
                        </g>
                    </g>
                </g>
            </g>
        </g>
    </g>
</svg>