<?xml version="1.0" encoding="UTF-8"?>
<svg width="284px" height="41px" viewBox="0 0 284 41" version="1.1" xmlns="http://www.w3.org/2000/svg" xmlns:xlink="http://www.w3.org/1999/xlink">
    <!-- Generator: Sketch 49.2 (51160) - http://www.bohemiancoding.com/sketch -->
    <title>Group 2</title>
    <desc>Created with Sketch.</desc>
    <defs></defs>
    <g id="Page-1" stroke="none" stroke-width="1" fill="none" fill-rule="evenodd">
        <g id="Group-2">
            <g id="Group">
                <g id="TheOhioStateUniversity-HorizK-RGBHEX" transform="translate(41.000000, 14.000000)" fill="#0A0B09">
                    <polygon id="Fill-1" points="0 17 243 17 243 16 0 16"></polygon>
                </g>
                <g id="XMLID_121_" transform="translate(41.000000, 11.000000)" fill="#000000" fill-rule="nonzero">
                    <polygon id="XMLID_168_" points="9.91356116 3.66842105 9.69804896 2.08596491 6.82455297 2.08596491 6.82455297 12.2280702 8.33313837 12.4438596 8.33313837 13.3789474 2.94533339 13.3789474 2.94533339 12.4438596 4.45391878 12.2280702 4.45391878 2.08596491 1.58042279 2.08596491 1.36491059 3.66842105 0.359186999 3.66842105 0.359186999 0.79122807 10.9192848 0.79122807 10.9192848 3.66842105 9.91356116 3.66842105"></polygon>
                    <polygon id="XMLID_166_" points="17.7438377 13.3789474 17.7438377 12.4438596 19.1805857 12.2280702 19.1805857 8.7754386 15.4450409 8.7754386 15.4450409 12.2280702 16.8817889 12.4438596 16.8817889 13.3789474 11.7813336 13.3789474 11.7813336 12.4438596 13.2180815 12.2280702 13.2180815 4.60350877 11.7813336 4.3877193 11.7813336 3.45263158 16.8817889 3.45263158 16.8817889 4.3877193 15.4450409 4.60350877 15.4450409 7.55263158 19.1805857 7.55263158 19.1805857 4.60350877 17.7438377 4.3877193 17.7438377 3.45263158 22.8442931 3.45263158 22.8442931 4.3877193 21.4075451 4.60350877 21.4075451 12.2280702 22.8442931 12.4438596 22.8442931 13.3789474"></polygon>
                    <polygon id="XMLID_164_" points="32.4705047 13.3789474 23.9936915 13.3789474 23.9936915 12.4438596 25.4304395 12.2280702 25.4304395 4.60350877 23.9936915 4.3877193 23.9936915 3.45263158 32.5423421 3.45263158 32.5423421 6.04210526 31.6084559 6.04210526 31.3929437 4.60350877 27.8010737 4.60350877 27.8010737 7.55263158 30.0280331 7.55263158 30.2435453 6.25789474 31.1055941 6.25789474 31.1055941 9.92631579 30.1717079 9.92631579 29.9561957 8.63157895 27.7292363 8.63157895 27.7292363 12.0122807 31.3211063 12.0122807 31.5366185 10.5736842 32.4705047 10.5736842"></polygon>
                    <path d="M44.4673504,13.5947368 C40.5881308,13.5947368 38.8640332,11.2929825 38.8640332,7.04912281 C38.8640332,2.80526316 40.5881308,0.575438596 44.5391878,0.575438596 C48.4184074,0.575438596 50.142505,2.87719298 50.142505,7.12105263 C50.142505,11.2929825 48.4184074,13.5947368 44.4673504,13.5947368 Z M44.4673504,1.87017544 C42.3840658,1.87017544 41.3065048,3.5245614 41.3065048,6.97719298 C41.3065048,10.4298246 42.3122284,12.1561404 44.395513,12.1561404 C46.4787976,12.1561404 47.5563586,10.5017544 47.5563586,7.04912281 C47.628196,3.59649123 46.6224724,1.87017544 44.4673504,1.87017544 Z" id="XMLID_161_"></path>
                    <polygon id="XMLID_159_" points="57.2544076 13.3789474 57.2544076 12.4438596 58.6911556 12.2280702 58.6911556 8.7754386 54.9556108 8.7754386 54.9556108 12.2280702 56.3923588 12.4438596 56.3923588 13.3789474 51.2919034 13.3789474 51.2919034 12.4438596 52.7286514 12.2280702 52.7286514 4.60350877 51.2919034 4.3877193 51.2919034 3.45263158 56.3923588 3.45263158 56.3923588 4.3877193 54.9556108 4.60350877 54.9556108 7.55263158 58.6911556 7.55263158 58.6911556 4.60350877 57.2544076 4.3877193 57.2544076 3.45263158 62.3548629 3.45263158 62.3548629 4.3877193 60.9181149 4.60350877 60.9181149 12.2280702 62.3548629 12.4438596 62.3548629 13.3789474"></polygon>
                    <polygon id="XMLID_157_" points="63.5760987 13.3789474 63.5760987 12.4438596 65.0128467 12.2280702 65.0128467 4.60350877 63.5760987 4.3877193 63.5760987 3.45263158 68.7483915 3.45263158 68.7483915 4.3877193 67.3116435 4.60350877 67.3116435 12.2280702 68.7483915 12.4438596 68.7483915 13.3789474"></polygon>
                    <path d="M74.3517087,13.5947368 C71.0471883,13.5947368 69.5386029,11.7245614 69.5386029,8.4877193 C69.5386029,5.25087719 70.9753509,3.38070175 74.3517087,3.38070175 C77.6562291,3.38070175 79.1648145,5.25087719 79.1648145,8.4877193 C79.1648145,11.7245614 77.6562291,13.5947368 74.3517087,13.5947368 Z M74.3517087,4.60350877 C72.7712859,4.60350877 71.9092371,5.75438596 71.9092371,8.41578947 C71.9092371,11.077193 72.6994485,12.2280702 74.2798713,12.2280702 C75.8602941,12.2280702 76.7223429,11.077193 76.7223429,8.41578947 C76.7941803,5.75438596 75.9321315,4.60350877 74.3517087,4.60350877 Z" id="XMLID_154_"></path>
                    <path d="M89.4375626,13.5947368 C87.2824406,13.5947368 85.4865056,12.8754386 85.4865056,12.8754386 L85.4865056,10.2140351 L86.5640666,10.2140351 L86.7795788,11.9403509 C86.7795788,11.9403509 87.5697902,12.2280702 89.0065382,12.2280702 C90.4432862,12.2280702 91.8081968,11.7245614 91.8081968,10.1421053 C91.8081968,8.70350877 90.8024732,8.4877193 89.5812374,8.05614035 C87.5697902,7.40877193 85.4865056,6.83333333 85.4865056,4.1 C85.4865056,1.87017544 86.8514162,0.575438596 89.7249122,0.575438596 C91.0179854,0.575438596 92.382896,0.863157895 93.460457,1.29473684 L93.460457,3.8122807 L92.382896,3.8122807 L92.1673838,2.15789474 C92.1673838,2.15789474 91.0179854,1.94210526 89.9404244,1.94210526 C88.8628634,1.94210526 87.713465,2.30175439 87.713465,3.74035088 C87.713465,6.90526316 94.0351562,4.81929825 94.0351562,9.85438596 C94.1069936,12.2280702 92.5265708,13.5947368 89.4375626,13.5947368 Z" id="XMLID_152_"></path>
                    <polygon id="XMLID_150_" points="103.014831 6.18596491 102.799319 4.6754386 100.644197 4.6754386 100.644197 12.2280702 102.080945 12.4438596 102.080945 13.3789474 96.9086522 13.3789474 96.9086522 12.4438596 98.3454002 12.2280702 98.3454002 4.6754386 96.1902782 4.6754386 95.974766 6.18596491 95.0408798 6.18596491 95.0408798 3.45263158 104.020555 3.45263158 104.020555 6.18596491"></polygon>
                    <path d="M109.983059,13.3789474 L109.983059,12.4438596 L111.419807,12.2280702 L110.701433,10.4298246 L106.965888,10.4298246 L106.247514,12.2280702 L107.684262,12.4438596 L107.684262,13.3789474 L103.374018,13.3789474 L103.374018,12.4438596 L104.810766,12.2280702 L108.187124,3.45263158 L110.342246,3.45263158 L113.718604,12.2280702 L115.155352,12.4438596 L115.155352,13.3789474 L109.983059,13.3789474 Z M108.833661,5.39473684 L107.396913,9.27894737 L110.270409,9.27894737 L108.833661,5.39473684 Z" id="XMLID_147_"></path>
                    <polygon id="XMLID_145_" points="122.554604 6.18596491 122.339092 4.6754386 120.18397 4.6754386 120.18397 12.2280702 121.620718 12.4438596 121.620718 13.3789474 116.448425 13.3789474 116.448425 12.4438596 117.885173 12.2280702 117.885173 4.6754386 115.730051 4.6754386 115.514539 6.18596491 114.580653 6.18596491 114.580653 3.45263158 123.560327 3.45263158 123.560327 6.18596491"></polygon>
                    <polygon id="XMLID_143_" points="132.899189 13.3789474 124.350539 13.3789474 124.350539 12.4438596 125.787287 12.2280702 125.787287 4.60350877 124.350539 4.3877193 124.350539 3.45263158 132.899189 3.45263158 132.899189 6.04210526 131.965303 6.04210526 131.749791 4.60350877 128.157921 4.60350877 128.157921 7.55263158 130.38488 7.55263158 130.600393 6.25789474 131.462441 6.25789474 131.462441 9.92631579 130.600393 9.92631579 130.38488 8.63157895 128.157921 8.63157895 128.157921 12.0122807 131.749791 12.0122807 131.965303 10.5736842 132.899189 10.5736842"></polygon>
                    <path d="M150.068328,1.94210526 L150.068328,8.41578947 C150.068328,10.5736842 149.924653,11.5087719 148.91893,12.5157895 C148.200556,13.2350877 146.97932,13.5947368 145.183385,13.5947368 C143.38745,13.5947368 142.094377,13.0912281 141.304165,12.3 C140.226604,11.2210526 140.370279,9.63859649 140.370279,8.2 L140.370279,1.94210526 L138.861694,1.72631579 L138.861694,0.719298246 L144.249499,0.719298246 L144.249499,1.65438596 L142.740913,1.87017544 L142.740913,9.35087719 C142.740913,11.4368421 143.890312,12.2280702 145.686247,12.2280702 C146.620133,12.2280702 147.410344,12.0122807 147.913206,11.5087719 C148.34423,11.0052632 148.63158,10.2859649 148.63158,9.35087719 L148.63158,1.94210526 L147.122995,1.72631579 L147.122995,0.719298246 L151.720588,0.719298246 L151.720588,1.65438596 L150.068328,1.94210526 Z" id="XMLID_141_"></path>
                    <polygon id="XMLID_139_" points="161.921499 4.60350877 161.921499 13.3789474 160.197401 13.3789474 155.168783 6.32982456 155.168783 12.2280702 156.605531 12.4438596 156.605531 13.3789474 152.151613 13.3789474 152.151613 12.4438596 153.588361 12.2280702 153.588361 4.60350877 152.151613 4.3877193 152.151613 3.45263158 155.599808 3.45263158 160.412914 10.2140351 160.412914 4.60350877 158.976166 4.3877193 158.976166 3.45263158 163.430084 3.45263158 163.430084 4.3877193"></polygon>
                    <polygon id="XMLID_137_" points="164.579483 13.3789474 164.579483 12.4438596 166.016231 12.2280702 166.016231 4.60350877 164.579483 4.3877193 164.579483 3.45263158 169.751775 3.45263158 169.751775 4.3877193 168.315028 4.60350877 168.315028 12.2280702 169.751775 12.4438596 169.751775 13.3789474"></polygon>
                    <polygon id="XMLID_135_" points="180.814735 4.60350877 177.510215 13.3789474 175.355093 13.3789474 172.050572 4.60350877 170.613824 4.3877193 170.613824 3.45263158 175.71428 3.45263158 175.71428 4.3877193 174.277532 4.60350877 176.791841 11.3649123 179.30615 4.60350877 177.869402 4.3877193 177.869402 3.45263158 182.179646 3.45263158 182.179646 4.3877193"></polygon>
                    <polygon id="XMLID_133_" points="191.518508 13.3789474 182.969857 13.3789474 182.969857 12.4438596 184.406605 12.2280702 184.406605 4.60350877 182.969857 4.3877193 182.969857 3.45263158 191.518508 3.45263158 191.518508 6.04210526 190.584621 6.04210526 190.369109 4.60350877 186.777239 4.60350877 186.777239 7.55263158 189.004199 7.55263158 189.219711 6.25789474 190.08176 6.25789474 190.08176 9.92631579 189.219711 9.92631579 189.004199 8.63157895 186.777239 8.63157895 186.777239 12.0122807 190.369109 12.0122807 190.584621 10.5736842 191.518508 10.5736842"></polygon>
                    <path d="M200.138996,13.3789474 L199.205109,11.1491228 C198.558573,9.63859649 198.199386,8.91929825 196.906313,8.91929825 L196.762638,8.91929825 L196.762638,12.2280702 L198.199386,12.4438596 L198.199386,13.3789474 L193.09893,13.3789474 L193.09893,12.4438596 L194.535678,12.2280702 L194.535678,4.60350877 L193.09893,4.3877193 L193.09893,3.45263158 L198.055711,3.45263158 C199.061435,3.45263158 200.28267,3.5245614 201.001044,4.24385965 C201.503906,4.74736842 201.791256,5.32280702 201.791256,6.11403509 C201.791256,7.26491228 201.072882,8.27192982 199.995321,8.63157895 C200.85737,9.27894737 201.503906,11.2929825 201.934931,12.3 L203.371679,12.5157895 L203.371679,13.4508772 L200.138996,13.4508772 L200.138996,13.3789474 Z M199.133272,4.96315789 C198.774085,4.60350877 197.912036,4.60350877 197.409174,4.60350877 L196.762638,4.60350877 L196.762638,7.76842105 L197.193662,7.76842105 C197.840199,7.76842105 198.702248,7.84035088 199.205109,7.33684211 C199.492459,6.97719298 199.564296,6.61754386 199.564296,6.18596491 C199.564296,5.75438596 199.420622,5.32280702 199.133272,4.96315789 Z" id="XMLID_130_"></path>
                    <path d="M207.825597,13.5947368 C205.957825,13.5947368 204.44924,12.9473684 204.44924,12.9473684 L204.44924,10.3578947 L205.454963,10.3578947 L205.670475,12.0122807 C205.670475,12.0122807 206.388849,12.2280702 207.46641,12.2280702 C208.687646,12.2280702 209.621532,11.7964912 209.621532,10.7894737 C209.621532,10.0701754 209.190508,9.78245614 208.615809,9.56666667 C206.819874,8.91929825 204.44924,8.70350877 204.44924,6.18596491 C204.44924,4.3877193 205.670475,3.30877193 208.112947,3.30877193 C209.190508,3.30877193 210.339906,3.5245614 211.34563,3.88421053 L211.34563,6.32982456 L210.339906,6.32982456 L210.124394,4.81929825 C210.124394,4.81929825 209.262345,4.60350877 208.400297,4.60350877 C207.46641,4.60350877 206.676199,4.89122807 206.676199,5.89824561 C206.676199,8.12807018 211.920329,6.61754386 211.920329,10.5736842 C211.848492,12.4438596 210.411744,13.5947368 207.825597,13.5947368 Z" id="XMLID_128_"></path>
                    <polygon id="XMLID_126_" points="213.141565 13.3789474 213.141565 12.4438596 214.578313 12.2280702 214.578313 4.60350877 213.141565 4.3877193 213.141565 3.45263158 218.313858 3.45263158 218.313858 4.3877193 216.87711 4.60350877 216.87711 12.2280702 218.313858 12.4438596 218.313858 13.3789474"></polygon>
                    <polygon id="XMLID_124_" points="227.437207 6.18596491 227.221695 4.6754386 225.066573 4.6754386 225.066573 12.2280702 226.503321 12.4438596 226.503321 13.3789474 221.331028 13.3789474 221.331028 12.4438596 222.767776 12.2280702 222.767776 4.6754386 220.612654 4.6754386 220.397142 6.18596491 219.463256 6.18596491 219.463256 3.45263158 228.442931 3.45263158 228.442931 6.18596491"></polygon>
                    <polygon id="XMLID_122_" points="238.787517 4.60350877 235.914021 9.06315789 235.914021 12.2280702 237.350769 12.4438596 237.350769 13.3789474 232.178476 13.3789474 232.178476 12.4438596 233.615224 12.2280702 233.615224 9.06315789 230.66989 4.60350877 229.233142 4.3877193 229.233142 3.45263158 234.477273 3.45263158 234.477273 4.3877193 233.040525 4.60350877 235.051972 7.84035088 237.063419 4.60350877 235.698508 4.3877193 235.698508 3.45263158 240.08059 3.45263158 240.08059 4.3877193"></polygon>
                </g>
                <g id="XMLID_171_" fill-rule="nonzero">
                    <path d="M8.62048796,11.8684211 L11.2784718,9.20701754 L19.9707971,9.20701754 L22.6287809,11.8684211 L22.6287809,29.7789474 L19.9707971,32.4403509 L11.3503092,32.4403509 L8.62048796,29.7789474 L8.62048796,11.8684211 L8.62048796,11.8684211 Z M29.5251713,8.91929825 L22.9161305,2.30175439 L8.54865056,2.30175439 L1.86777239,8.99122807 L1.86777239,32.6561404 L8.54865056,39.345614 L22.9161305,39.345614 L29.5251713,32.7280702 L29.5251713,8.91929825 L29.5251713,8.91929825 Z" id="XMLID_178_" fill="#C3002F"></path>
                    <path d="M0.933886196,33.0157895 L0.933886196,8.4877193 L8.18946357,1.29473684 L23.2753175,1.29473684 L30.3872201,8.41578947 L30.3872201,33.0877193 L23.2034801,40.2807018 L8.18946357,40.2807018 L0.933886196,33.0157895 L0.933886196,33.0157895 Z M7.90211397,0.575438596 L0.287349599,8.2 L0.287349599,33.3754386 L7.83027657,41 L23.5626671,41 L31.1774315,33.3754386 L31.1774315,8.2 L23.5626671,0.575438596 L7.90211397,0.575438596 L7.90211397,0.575438596 Z" id="XMLID_175_" fill="#000000"></path>
                    <path d="M12.1405205,10.9333333 L19.2524231,10.9333333 L20.9765207,12.6596491 L20.9765207,29.1315789 L19.3242605,30.7859649 L12.0686831,30.7859649 L10.4882604,29.2035088 L10.4882604,12.6596491 L12.1405205,10.9333333 L12.1405205,10.9333333 Z M21.6230573,12.3719298 L19.4679353,10.2140351 L11.853171,10.2140351 L9.76988636,12.3 L9.76988636,29.3473684 L11.853171,31.4333333 L19.6834475,31.4333333 L21.6948947,29.4192982 L21.6948947,12.3719298 L21.6230573,12.3719298 Z" id="XMLID_172_" fill="#000000"></path>
                </g>
            </g>
        </g>
    </g>
</svg>